<svg xmlns="http://www.w3.org/2000/svg" version="1.1" xmlns:xlink="http://www.w3.org/1999/xlink" xmlns:svgjs="http://svgjs.com/svgjs" width="512" height="512" x="0" y="0" viewBox="0 0 64 64" style="enable-background:new 0 0 512 512" xml:space="preserve" class=""><g><linearGradient id="a"><stop offset="0" stop-color="#ff7eae"></stop><stop offset=".582" stop-color="#faba04"></stop><stop offset="1" stop-color="#9c0598"></stop></linearGradient><linearGradient xlink:href="#a" id="b" x1="32" x2="32" y1=".617" y2="61.894" gradientUnits="userSpaceOnUse"></linearGradient><linearGradient xlink:href="#a" id="c" x1="33.231" x2="33.231" y1=".617" y2="61.894" gradientUnits="userSpaceOnUse"></linearGradient><linearGradient xlink:href="#a" id="d" x1="13.211" x2="13.211" y1=".617" y2="61.894" gradientUnits="userSpaceOnUse"></linearGradient><linearGradient xlink:href="#a" id="e" x1="18.211" x2="18.211" y1=".617" y2="61.894" gradientUnits="userSpaceOnUse"></linearGradient><linearGradient xlink:href="#a" id="f" x1="26.735" x2="26.735" y1=".617" y2="61.894" gradientUnits="userSpaceOnUse"></linearGradient><linearGradient xlink:href="#a" id="g" x1="33.441" x2="33.441" y1=".617" y2="61.894" gradientUnits="userSpaceOnUse"></linearGradient><linearGradient xlink:href="#a" id="h" x1="19.447" x2="19.447" y1=".617" y2="61.894" gradientUnits="userSpaceOnUse"></linearGradient><linearGradient xlink:href="#a" id="i" x1="33.593" x2="33.593" y1=".617" y2="61.894" gradientUnits="userSpaceOnUse"></linearGradient><linearGradient xlink:href="#a" id="j" x1="16" x2="16" y1=".617" y2="61.894" gradientUnits="userSpaceOnUse"></linearGradient><linearGradient xlink:href="#a" id="k" x1="3" x2="3" y1=".617" y2="61.894" gradientUnits="userSpaceOnUse"></linearGradient><linearGradient xlink:href="#a" id="l" x1="14" x2="14" y1=".617" y2="61.894" gradientUnits="userSpaceOnUse"></linearGradient><linearGradient xlink:href="#a" id="m" x1="7.702" x2="7.702" y1=".617" y2="61.894" gradientUnits="userSpaceOnUse"></linearGradient><linearGradient xlink:href="#a" id="n" x1="2" x2="2" y1=".617" y2="61.894" gradientUnits="userSpaceOnUse"></linearGradient><linearGradient xlink:href="#a" id="o" x1="8" x2="8" y1=".617" y2="61.894" gradientUnits="userSpaceOnUse"></linearGradient><linearGradient xlink:href="#a" id="p" x1="55.978" x2="55.978" y1=".617" y2="61.894" gradientUnits="userSpaceOnUse"></linearGradient><linearGradient xlink:href="#a" id="q" x1="58.834" x2="58.834" y1=".617" y2="61.894" gradientUnits="userSpaceOnUse"></linearGradient><linearGradient xlink:href="#a" id="r" x1="59.213" x2="59.213" y1=".617" y2="61.894" gradientUnits="userSpaceOnUse"></linearGradient><linearGradient xlink:href="#a" id="s" x1="61.809" x2="61.809" y1=".617" y2="61.894" gradientUnits="userSpaceOnUse"></linearGradient><path fill="url(#b)" d="M10.733 11.246A4.99 4.99 0 0 0 9 15.03V59c0 2.757 2.243 5 5 5h36c2.757 0 5-2.243 5-5V16c0-2.757-2.243-5-5-5h-4V5.39c0-1.446-.563-2.8-1.579-3.803C43.078.228 41.128-.324 39.164.193c-.033.009-.066.02-.098.031L12.64 10.217a4.896 4.896 0 0 0-1.907 1.029zM50 13c1.654 0 3 1.346 3 3v43c0 1.654-1.346 3-3 3H14c-1.654 0-3-1.346-3-3V15.03c0-.757.285-1.48.792-2.03zM39.723 2.114c1.258-.313 2.441.032 3.285.888.639.632.992 1.48.992 2.388V11H16.214z" data-original="url(#b)" class=""></path><path fill="url(#c)" d="M24.796 39.328c.019-.009.035-.011.054-.019a5.62 5.62 0 0 0 .612 2.157c.606 1.157 1.588 2.047 2.851 2.642l20.271 16.717a1 1 0 0 0 1.628-.901l-3.39-25.796c.158-1.269-.029-2.48-.593-3.553-.578-1.091-1.519-1.949-2.711-2.541a6.933 6.933 0 0 0-.909-2.759c-.421-.729-.402-1.29.062-1.818.717-.816.843-1.978.312-2.89a2.471 2.471 0 0 0-1.889-1.213 2.402 2.402 0 0 0-2.061.808c-1.773 2.012-2.103 4.59-.962 7.005-1.39.134-2.828.506-4.243 1.061-.82-.905-1.918-1.585-3.258-1.947-.813-.22-1.196-.631-1.241-1.333-.068-1.083-.799-1.994-1.818-2.266v-.001a2.477 2.477 0 0 0-2.195.476 2.404 2.404 0 0 0-.889 2.027c.174 2.841 1.941 4.995 4.728 5.8a13.954 13.954 0 0 0-2.768 3.078c-1.225-.129-2.508.079-3.769.678-.829.393-1.434.319-1.969-.228a2.584 2.584 0 0 0-2.977-.543 2.513 2.513 0 0 0-1.391 1.808 2.46 2.46 0 0 0 .643 2.169c2.106 2.202 5.048 2.721 7.872 1.382zm20.519-1.329.527 4.013c-.927 2.789-2.728 5.672-5.753 9.214l-2.781-2.293c2.464-2.908 4.137-5.427 5.207-7.844 1.121-.93 2.07-1.975 2.8-3.09zm1.576 11.998c-.784 1.356-1.788 2.786-3.038 4.333l-2.222-1.832c2.078-2.436 3.615-4.599 4.713-6.658zM35.766 47.66l-3.294-2.717c2.121-.013 4.395-.578 6.559-1.626-.866 1.354-1.944 2.786-3.265 4.343zm9.63 7.942a42.527 42.527 0 0 0 1.9-2.523l.603 4.587zm-4.861-34.119a.415.415 0 0 1 .365-.141c.072.008.25.044.357.229.099.17.065.392-.086.563-1.028 1.17-1.135 2.678-.292 4.138 1.445 2.507.323 4.38-.475 5.273a.397.397 0 0 1-.346.132.45.45 0 0 1-.346-.243c-.122-.21-.037-.432.083-.567 1.024-1.169 1.129-2.676.288-4.134-1.437-2.491-.333-4.359.452-5.25zm-14.109 3.578a.422.422 0 0 1 .159-.357.472.472 0 0 1 .413-.09c.19.051.323.231.337.461.099 1.554 1.089 2.697 2.715 3.138 2.792.754 3.32 2.873 3.386 4.069a.4.4 0 0 1-.152.338c-.052.043-.191.133-.417.071-.234-.062-.33-.279-.342-.461-.101-1.55-1.091-2.69-2.716-3.131-2.774-.75-3.31-2.853-3.383-4.038zm4.116 7.378a2.498 2.498 0 0 0 2.47 2.275c.551 0 1.095-.188 1.532-.542a2.382 2.382 0 0 0 .891-2.002 6.702 6.702 0 0 0-.511-2.226c1.225-.447 2.451-.719 3.63-.801-.06.139-.148.274-.264.406a2.506 2.506 0 0 0-.292 2.916 2.438 2.438 0 0 0 2.112 1.215c.685 0 1.325-.285 1.788-.803a6.538 6.538 0 0 0 1.454-2.629 3.78 3.78 0 0 1 1.112 1.258c.7 1.334.528 3.059-.484 4.858-1.092 1.938-2.999 3.691-5.37 4.934-2.367 1.24-4.887 1.812-7.103 1.606-2.054-.19-3.571-1.031-4.271-2.369a3.56 3.56 0 0 1-.304-.84 2.602 2.602 0 0 0 1.712.666c.365 0 .731-.079 1.073-.242a2.551 2.551 0 0 0 1.404-1.845 2.477 2.477 0 0 0-.661-2.186 6.933 6.933 0 0 0-2.047-1.463 12.41 12.41 0 0 1 2.129-2.186zM18.25 36.142a.53.53 0 0 1 .314-.383c.26-.12.507-.003.654.147.661.681 2.093 1.664 4.259.64 2.769-1.312 4.661.021 5.542.933a.5.5 0 0 1 .131.442.541.541 0 0 1-.3.395c-.208.103-.462.041-.648-.149-.457-.471-1.281-1.088-2.46-1.088-.529 0-1.131.124-1.803.443-2.788 1.319-4.683-.032-5.565-.956a.48.48 0 0 1-.124-.424z" data-original="url(#c)"></path><path fill="url(#d)" d="M12.897 31.075a1.21 1.21 0 1 0 .628-2.337 1.21 1.21 0 0 0-.628 2.337z" data-original="url(#d)"></path><path fill="url(#e)" d="M17.897 22.075a1.21 1.21 0 1 0 .628-2.337 1.21 1.21 0 0 0-.628 2.337z" data-original="url(#e)"></path><path fill="url(#f)" d="M26.421 19.619a1.21 1.21 0 1 0 .628-2.337 1.21 1.21 0 0 0-.628 2.337z" data-original="url(#f)"></path><path fill="url(#g)" d="M32.271 23.419a1.21 1.21 0 1 0 2.337.628 1.21 1.21 0 0 0-2.337-.628z" data-original="url(#g)"></path><path fill="url(#h)" d="M18.653 30.908a3.07 3.07 0 0 0 3.752-2.167 3.069 3.069 0 0 0-2.163-3.755 3.07 3.07 0 0 0-3.752 2.165 3.068 3.068 0 0 0 2.163 3.757zm-.232-3.236a1.065 1.065 0 0 1 1.302-.753 1.065 1.065 0 0 1-.552 2.058 1.067 1.067 0 0 1-.75-1.305z" data-original="url(#h)"></path><path fill="url(#i)" d="M32.797 20.296a3.075 3.075 0 0 0 3.759-2.17 3.074 3.074 0 0 0-2.167-3.762 3.073 3.073 0 0 0-3.456 4.5 3.046 3.046 0 0 0 1.864 1.432zm-.235-3.242a1.072 1.072 0 0 1 1.309-.758c.569.153.907.741.754 1.312v.001a1.075 1.075 0 0 1-1.31.756 1.066 1.066 0 0 1-.753-1.311z" data-original="url(#i)"></path><path fill="url(#j)" d="M18 58h-3v-2a1 1 0 1 0-2 0v3a1 1 0 0 0 1 1h4a1 1 0 1 0 0-2z" data-original="url(#j)"></path><path fill="url(#k)" d="M0 15c0 1.654 1.346 3 3 3s3-1.346 3-3-1.346-3-3-3-3 1.346-3 3zm3-1a1.001 1.001 0 1 1-1 1c0-.552.449-1 1-1z" data-original="url(#k)"></path><circle cx="14" cy="3" r="1" fill="url(#l)" data-original="url(#l)"></circle><circle cx="7.702" cy="11.404" r="1" fill="url(#m)" data-original="url(#m)"></circle><circle cx="2" cy="2" r="1" fill="url(#n)" data-original="url(#n)"></circle><path fill="url(#o)" d="M8 1C5.794 1 4 2.794 4 5s1.794 4 4 4 4-1.794 4-4-1.794-4-4-4zm0 6c-1.103 0-2-.897-2-2s.897-2 2-2 2 .897 2 2-.897 2-2 2z" data-original="url(#o)"></path><path fill="url(#p)" d="m55.146 2.445-1.498 2.247-2.247 1.498a1.001 1.001 0 0 0 0 1.664l2.247 1.497 1.498 2.247a1.001 1.001 0 0 0 1.664 0l1.498-2.247 2.247-1.497a.999.999 0 0 0 0-1.664l-2.247-1.498-1.498-2.247c-.371-.556-1.293-.556-1.664 0zm3.051 4.577-1.165.776a.987.987 0 0 0-.277.277l-.777 1.165-.777-1.165a.987.987 0 0 0-.277-.277l-1.165-.776 1.165-.777a1 1 0 0 0 .277-.277l.777-1.165.777 1.165a1 1 0 0 0 .277.277z" data-original="url(#p)"></path><path fill="url(#q)" d="M58.833 14.722c-1.654 0-3 1.346-3 3s1.346 3 3 3 3-1.346 3-3-1.345-3-3-3zm0 4a1.001 1.001 0 0 1 0-2 1.001 1.001 0 0 1 0 2z" data-original="url(#q)"></path><circle cx="59.213" cy="1.234" r="1" fill="url(#r)" data-original="url(#r)"></circle><circle cx="61.809" cy="12" r="1" fill="url(#s)" data-original="url(#s)"></circle><path fill="url(#l)" d="M13 51v2a1 1 0 1 0 2 0v-2a1 1 0 1 0-2 0z" data-original="url(#l)"></path></g></svg>