<svg xmlns="http://www.w3.org/2000/svg" version="1.1" xmlns:xlink="http://www.w3.org/1999/xlink" xmlns:svgjs="http://svgjs.com/svgjs" width="512" height="512" x="0" y="0" viewBox="0 0 511.999 511.999" style="enable-background:new 0 0 512 512" xml:space="preserve" class=""><g><path d="M136.75 36.72c-.17-.01-.33-.01-.5-.01-55.215 0-100 44.762-100 100v.29c.16 54.818 44.505 99.459 99.5 99.7 13.97.07 28.62-2.72 43.38-8.94L236.25 137v-.29c0-54.993-44.428-99.729-99.5-99.99z" style="" fill="#ffc266" data-original="#ffc266" class=""></path><path d="M417.47 176H134.82c125.497 146.597 138.61 161.809 141.43 165.46 3.921-5.03-9.801 11.347 141.34-165.36l-.12-.1z" style="" fill="#ff6564" data-original="#ff6564" class=""></path><path d="m101.44 137 33.38 39h282.93l33.3-39H101.44zM335.75 502h-120l60-40z" style="" fill="#f5f5f5" data-original="#f5f5f5" class=""></path><path d="M195.75 166c-5.52 0-10 4.48-10 10s4.48 10 10 10 10-4.48 10-10-4.48-10-10-10z" fill="#000000" data-original="#000000" class=""></path><path d="M475.75 20c5.522 0 10-4.477 10-10s-4.478-10-10-10h-80a9.998 9.998 0 0 0-9.204 6.09L335.178 127h-89.357c-4.842-55.711-51.456-99.904-108.824-100.278-.059-.002-.119-.001-.177-.003-.024 0-.047-.004-.071-.004l-.037.002c-.153-.003-.305-.007-.463-.007-60.683 0-110 49.183-110 110v.319c.175 60.39 48.954 109.367 109.38 109.67.04 0 .079.006.12.006.03 0 .059-.004.089-.005l.426.001c13.362 0 26.739-2.377 39.867-7.06l89.618 104.702v112.304l-55.547 37.031a9.999 9.999 0 0 0 5.547 18.321h120a10.001 10.001 0 0 0 5.547-18.321l-55.547-37.031V345.539l.227-.29 172.68-201.746c5.544-6.476.929-16.503-7.596-16.503h-94.15l45.458-107h73.382zm-350 160.82v45.262c-16.763-1.932-32.49-8.496-45.667-19.063l36.707-36.707 8.961 10.47c.001.013-.001.025-.001.038zM46.847 147h49.99l6.909 8.072-37.806 37.805C55.329 179.644 48.753 163.839 46.847 147zm-.067-20c1.82-17.065 8.426-33.072 19.16-46.457L112.397 127H46.78zm99.97-79.659c16.79 1.937 32.531 8.51 45.707 19.089l-45.707 46.13V47.341zm-20 65.726L80.081 66.398C93.515 55.62 109.6 49.001 126.75 47.214v65.853zm79.84-32.486c10.716 13.377 17.312 29.37 19.13 46.419h-65.123l45.993-46.419zm-60.84 145.636v-22.071l16.261 18.998a98.841 98.841 0 0 1-16.261 3.073zM248.777 492l26.973-17.981L302.723 492h-53.946zm27.473-166.145-89.407-104.457c-.056-.068-.114-.133-.171-.2L123.163 147h203.52l-8.072 19h-82.86c-5.522 0-10 4.477-10 10s4.478 10 10 10h74.364l-29.207 68.75c-2.159 5.083.211 10.955 5.294 13.114 5.038 2.143 10.936-.168 13.114-5.293L331.844 186h64.111L276.25 325.855zM429.336 147l-16.262 19h-72.732l8.072-19h80.922z" fill="#000000" data-original="#000000" class=""></path></g></svg>