<svg xmlns="http://www.w3.org/2000/svg" version="1.1" xmlns:xlink="http://www.w3.org/1999/xlink" xmlns:svgjs="http://svgjs.com/svgjs" width="512" height="512" x="0" y="0" viewBox="0 0 512.001 512.001" style="enable-background:new 0 0 512 512" xml:space="preserve" class=""><g><path fill="#fff3de" d="M243.141 132.04c0 .64-.05 1.3-.15 1.96l-10.31 67.78-57.38 11.53-20.32 4.08-54.41-15.61 23.47-87.75.01-.01 1.24-4.64c1.76-6.61 8.4-10.69 15.1-9.29l92.48 19.34c6.06 1.26 10.27 6.61 10.27 12.61z" data-original="#fff3de" class=""></path><path fill="#ffe5c2" d="M243.141 132.04c0 .64-.05 1.3-.15 1.96l-10.31 67.78-57.38 11.53 1.75-11.53 10.3-67.78c.1-.66.15-1.32.15-1.96 0-6-4.21-11.35-10.26-12.61l-41.7-8.66c-4.28-.89-8.51.45-11.49 3.25l1.24-4.64c1.76-6.61 8.4-10.69 15.1-9.29l92.48 19.34c6.06 1.26 10.27 6.61 10.27 12.61z" data-original="#ffe5c2" class=""></path><path fill="#fff3de" d="m118.105 353.643 33.444 7.003-28.54 136.293-33.443-7.003z" data-original="#fff3de" class=""></path><path fill="#ffe5c2" d="m105.254 493.18 28.539-136.292 17.994 3.768-28.54 136.292z" data-original="#ffe5c2" class=""></path><path fill="#fff3de" d="m385.541 201.68-52.17 12.93-11.2 2.78-68.74-15.48-10.42-67.77c-.1-.66-.16-1.31-.16-1.95-.01-6.01 4.19-11.36 10.25-12.63l45.93-9.69 46.52-9.81c6.7-1.42 13.34 2.65 15.12 9.26z" data-original="#fff3de" class=""></path><path fill="#ffe5c2" d="m385.541 201.68-52.17 12.93-3.46-12.84-22.33-82.97c-1.18-4.39-4.5-7.64-8.55-8.93l46.52-9.81c6.7-1.42 13.34 2.65 15.12 9.26z" data-original="#ffe5c2" class=""></path><path fill="#fff3de" d="m396.837 489.39-33.444 7.037-28.678-136.293 33.443-7.037z" data-original="#fff3de" class=""></path><path fill="#ffe5c2" d="m350.25 357.58 17.995-3.787 28.678 136.293-17.995 3.786z" data-original="#ffe5c2" class=""></path><path fill="#fec165" d="M100.574 201.782h132.11l-16.242 106.765c-6.036 39.702-44.184 66.19-83.495 57.969s-63.654-47.773-53.277-86.573z" data-original="#fec165"></path><path fill="#fdb441" d="m177.049 201.782-16.242 106.765c-3.77 24.798-20.068 44.44-41.352 53.69a70.343 70.343 0 0 0 13.492 4.28c39.311 8.221 77.459-18.267 83.495-57.969l16.242-106.765h-55.635z" data-original="#fdb441" class=""></path><path fill="#fec165" d="M353.334 366.516c-39.311 8.221-77.459-18.267-83.495-57.969l-16.242-106.765h132.11l20.904 78.161c10.377 38.8-13.966 78.351-53.277 86.573z" data-original="#fec165"></path><path fill="#fdb441" d="m406.611 279.943-20.904-78.161h-55.635l20.904 78.161c9.129 34.134-8.62 68.84-39.786 82.293 12.792 5.56 27.386 7.366 42.143 4.28 39.312-8.222 63.655-47.773 53.278-86.573z" data-original="#fdb441" class=""></path><path fill="#fec165" d="M52.936 115.271a7.5 7.5 0 0 1-7.5-7.5V97.669c0-4.142 3.357-7.5 7.5-7.5s7.5 3.358 7.5 7.5v10.102a7.5 7.5 0 0 1-7.5 7.5zM20.387 96.478a7.5 7.5 0 0 1-3.757-13.996l8.748-5.051a7.5 7.5 0 0 1 7.5 12.99l-8.748 5.051a7.47 7.47 0 0 1-3.743 1.006zM29.122 63.936a7.465 7.465 0 0 1-3.743-1.006l-8.748-5.051a7.5 7.5 0 0 1-2.745-10.245 7.498 7.498 0 0 1 10.245-2.745l8.748 5.051a7.5 7.5 0 0 1-3.757 13.996zM52.935 50.189a7.5 7.5 0 0 1-7.5-7.5V32.588c0-4.142 3.357-7.5 7.5-7.5s7.5 3.358 7.5 7.5V42.69a7.499 7.499 0 0 1-7.5 7.499zM76.75 63.936a7.5 7.5 0 0 1-3.757-13.996l8.748-5.051a7.5 7.5 0 0 1 7.5 12.99l-8.748 5.051a7.476 7.476 0 0 1-3.743 1.006zM85.484 96.476a7.465 7.465 0 0 1-3.743-1.006l-8.749-5.051a7.5 7.5 0 0 1-2.745-10.245 7.498 7.498 0 0 1 10.245-2.746l8.749 5.051a7.5 7.5 0 0 1-3.757 13.997z" data-original="#fec165"></path><path fill="#ffe5c2" d="M159.945 512.001a7.551 7.551 0 0 1-1.543-.16L51.4 489.469a7.5 7.5 0 1 1 3.07-14.682l107.002 22.373a7.5 7.5 0 0 1-1.527 14.841zM326.337 512.001a7.502 7.502 0 0 1-1.527-14.842l107.001-22.373a7.503 7.503 0 0 1 8.876 5.806 7.498 7.498 0 0 1-5.806 8.876L327.88 511.841a7.559 7.559 0 0 1-1.543.16z" data-original="#ffe5c2" class=""></path><path fill="#fec165" d="M459.064 235.955a7.5 7.5 0 0 1-7.5-7.5v-10.102c0-4.142 3.357-7.5 7.5-7.5s7.5 3.358 7.5 7.5v10.102a7.5 7.5 0 0 1-7.5 7.5zM426.517 217.161a7.5 7.5 0 0 1-3.757-13.996l8.748-5.051a7.5 7.5 0 0 1 7.5 12.99l-8.748 5.051a7.47 7.47 0 0 1-3.743 1.006zM435.252 184.62a7.465 7.465 0 0 1-3.743-1.006l-8.748-5.051a7.5 7.5 0 0 1-2.745-10.245 7.497 7.497 0 0 1 10.245-2.745l8.748 5.051a7.5 7.5 0 0 1-3.757 13.996zM459.065 170.874a7.5 7.5 0 0 1-7.5-7.5v-10.102c0-4.142 3.357-7.5 7.5-7.5s7.5 3.358 7.5 7.5v10.102a7.5 7.5 0 0 1-7.5 7.5zM482.88 184.62a7.5 7.5 0 0 1-3.757-13.996l8.748-5.051a7.5 7.5 0 1 1 7.5 12.99l-8.748 5.051a7.476 7.476 0 0 1-3.743 1.006zM491.614 217.16a7.465 7.465 0 0 1-3.743-1.006l-8.748-5.051a7.5 7.5 0 0 1-2.745-10.245 7.496 7.496 0 0 1 10.245-2.745l8.748 5.051a7.5 7.5 0 0 1-3.757 13.996z" data-original="#fec165"></path><path fill="#fff3de" d="M197.51 84.678a7.502 7.502 0 0 1-6.961-4.705L178.11 49.027a7.5 7.5 0 1 1 13.918-5.594l12.439 30.946a7.5 7.5 0 0 1-6.957 10.299zM288.771 84.678a7.5 7.5 0 0 1-6.957-10.299l12.439-30.946a7.5 7.5 0 0 1 13.918 5.594l-12.439 30.946a7.504 7.504 0 0 1-6.961 4.705z" data-original="#fff3de" class=""></path><path fill="#ffe5c2" d="M243.14 84.676a7.5 7.5 0 0 1-7.5-7.5V7.5c0-4.142 3.357-7.5 7.5-7.5s7.5 3.358 7.5 7.5v69.676a7.5 7.5 0 0 1-7.5 7.5z" data-original="#ffe5c2" class=""></path><circle cx="120.241" cy="276.504" r="7.501" fill="#fff3de" data-original="#fff3de" class=""></circle><circle cx="135.242" cy="245.832" r="7.501" fill="#fff3de" data-original="#fff3de" class=""></circle><circle cx="177.568" cy="315.169" r="7.501" fill="#ffe5c2" data-original="#ffe5c2" class=""></circle><circle cx="299.512" cy="237.858" r="7.501" fill="#fff3de" data-original="#fff3de" class=""></circle><circle cx="365.599" cy="310.735" r="7.501" fill="#ffe5c2" data-original="#ffe5c2" class=""></circle></g></svg>