<svg xmlns="http://www.w3.org/2000/svg" version="1.1" xmlns:xlink="http://www.w3.org/1999/xlink" xmlns:svgjs="http://svgjs.com/svgjs" width="512" height="512" x="0" y="0" viewBox="0 0 512 512" style="enable-background:new 0 0 512 512" xml:space="preserve" class=""><g transform="matrix(1,2.4492935982947064e-16,-2.4492935982947064e-16,1,0,-1.1368683772161603e-13)"><linearGradient id="a" x1="256" x2="256" y1="512" y2="0" gradientUnits="userSpaceOnUse" stroke-width="49" style="stroke-width: 49;"><stop stop-opacity="1" stop-color="#ffcfa6" offset="0.005141368360294122" stroke-width="49" style="stroke-width: 49;"></stop><stop stop-opacity="1" stop-color="#ff8870" offset="1" stroke-width="49" style="stroke-width: 49;"></stop></linearGradient><path d="M492 256c0 132.548-103.452 236-236 236S20 388.548 20 256 123.452 20 256 20s236 103.452 236 236zm-176-60c0-22.091-17.909-40-40-40s-40 17.909-40 40v100c0 33.134-26.859 60-60 60m0 0h160M176 256h120m-220 0h40m280 0h40" style="fill: none; stroke: url(&quot;#a&quot;); stroke-width: 49; stroke-miterlimit: 10;" fill="none" stroke-width="49" stroke-miterlimit="10"></path></g></svg>