<svg xmlns="http://www.w3.org/2000/svg" version="1.1" xmlns:xlink="http://www.w3.org/1999/xlink" xmlns:svgjs="http://svgjs.com/svgjs" width="512" height="512" x="0" y="0" viewBox="0 0 512 512" style="enable-background:new 0 0 512 512" xml:space="preserve" class=""><g><linearGradient id="a" x1="74.98" x2="437.02" y1="74.98" y2="437.02" gradientUnits="userSpaceOnUse"><stop stop-opacity="1" stop-color="#ffcfa6" offset="0"></stop><stop stop-opacity="1" stop-color="#ff8870" offset="1"></stop></linearGradient><path fill="url(#a)" d="m252.04 289.91.97 21.72c0 14.74-3.8 26.31-11.4 34.71H359.1v52.18H152.52v-52.18h19.9c7.34-1.94 11.21-8.6 11.59-19.97l.19-10.28-.97-26.18h-31.31v-50.24h29.76l-1.16-41.93c0-26.41 7.89-47.05 23.67-61.93s37.13-22.32 64.06-22.32c28.86 0 51.37 7.41 67.54 22.22 16.17 14.82 24.25 34.91 24.25 60.29h-63.77c0-20.22-8.76-30.34-26.28-30.34-6.57 0-11.85 2.61-15.85 7.83-3.99 5.22-5.99 13.3-5.99 24.25l1.74 41.93h59.33v50.24h-57.2zM256 0C114.62 0 0 114.61 0 256s114.62 256 256 256 256-114.61 256-256S397.38 0 256 0zm0 456c-110.46 0-200-89.54-200-200S145.54 56 256 56s200 89.54 200 200-89.54 200-200 200z" data-original="url(#a)" class=""></path></g></svg>