<svg xmlns="http://www.w3.org/2000/svg" version="1.1" xmlns:xlink="http://www.w3.org/1999/xlink" xmlns:svgjs="http://svgjs.com/svgjs" width="512" height="512" x="0" y="0" viewBox="0 0 234 234" style="enable-background:new 0 0 512 512" xml:space="preserve"><g><path d="M7.5 42.571h39.235c3.327 12.646 14.856 22 28.531 22s25.204-9.354 28.531-22H226.5a7.5 7.5 0 0 0 0-15H103.796c-3.327-12.646-14.856-22-28.531-22s-25.204 9.354-28.531 22H7.5a7.5 7.5 0 0 0 0 15zm67.766-22c7.995 0 14.5 6.505 14.5 14.5s-6.505 14.5-14.5 14.5-14.5-6.505-14.5-14.5 6.505-14.5 14.5-14.5zM226.5 109.5h-49.99c-3.327-12.646-14.856-22-28.531-22-13.675 0-25.204 9.354-28.531 22H7.5a7.5 7.5 0 0 0 0 15h111.949c3.327 12.645 14.856 22 28.531 22 13.675 0 25.204-9.355 28.531-22h49.99a7.5 7.5 0 1 0-.001-15zm-78.52 22c-7.995 0-14.5-6.505-14.5-14.5s6.505-14.5 14.5-14.5 14.5 6.505 14.5 14.5-6.505 14.5-14.5 14.5zM226.5 191.429H103.796c-3.327-12.645-14.856-22-28.531-22s-25.204 9.355-28.531 22H7.5a7.5 7.5 0 0 0 0 15h39.235c3.327 12.646 14.856 22 28.531 22s25.204-9.354 28.531-22H226.5a7.5 7.5 0 0 0 0-15zm-151.234 22c-7.995 0-14.5-6.505-14.5-14.5s6.505-14.5 14.5-14.5 14.5 6.505 14.5 14.5-6.505 14.5-14.5 14.5z" style="" fill="#ffffff" data-original="#000002"></path></g></svg>