<svg xmlns="http://www.w3.org/2000/svg" version="1.1" xmlns:xlink="http://www.w3.org/1999/xlink" xmlns:svgjs="http://svgjs.com/svgjs" width="512" height="512" x="0" y="0" viewBox="0 0 510 510" style="enable-background:new 0 0 512 512" xml:space="preserve" class=""><g><path fill="#ffb655" d="M409.105 424.019h-10.861v-10.861c0-8.284-6.716-15-15-15s-15 6.716-15 15v10.861h-10.861c-8.284 0-15 6.716-15 15s6.716 15 15 15h10.861v10.861c0 8.284 6.716 15 15 15s15-6.716 15-15v-10.861h10.861c8.284 0 15-6.716 15-15s-6.715-15-15-15z" data-original="#ffb655"></path><path fill="#ff7c48" d="M321.12 104.019h-10.862V93.158c0-8.284-6.716-15-15-15s-15 6.716-15 15v10.861h-10.861c-8.284 0-15 6.716-15 15s6.716 15 15 15h10.861v10.861c0 8.284 6.716 15 15 15s15-6.716 15-15v-10.861h10.862c8.284 0 15-6.716 15-15s-6.716-15-15-15z" data-original="#ff7c48"></path><path fill="#ff415b" d="M454.399 46.802h-10.861V35.941c0-8.284-6.716-15-15-15s-15 6.716-15 15v10.861h-10.861c-8.284 0-15 6.716-15 15s6.716 15 15 15h10.861v10.861c0 8.284 6.716 15 15 15s15-6.716 15-15V76.802h10.861c8.284 0 15-6.716 15-15s-6.715-15-15-15z" data-original="#ff415b" class=""></path><path fill="#ebe1dc" d="M148.89 75.689h30v97h-30z" data-original="#ebe1dc" class=""></path><path fill="#dcd2cd" d="M163.9 75.689h14.99v97H163.9z" data-original="#dcd2cd"></path><path fill="#736e6e" d="M236.86 31.979v18.04c0 21.82-17.68 39.5-39.5 39.5h-66.93c-21.82 0-39.5-17.68-39.5-39.5v-18.04c0-5.52 4.47-10 10-10h125.93c5.53 0 10 4.48 10 10z" data-original="#736e6e"></path><path fill="#5a5555" d="M197.36 89.519H163.9v-67.54h62.96c5.53 0 10 4.48 10 10v18.04c0 21.82-17.68 39.5-39.5 39.5z" data-original="#5a5555" class=""></path><path fill="#736e6e" d="M327.79 325.159c0 90.27-73.04 163.89-163.89 163.9h-.01C73.23 489.059 0 415.609 0 325.159c0-45.14 18.26-86.11 47.88-115.8s70.59-48.09 116.01-48.09h.01c90.73 0 163.89 73.56 163.89 163.89z" data-original="#736e6e"></path><path fill="#5a5555" d="M327.79 325.159c0 90.27-73.04 163.89-163.89 163.9v-327.79c90.73 0 163.89 73.56 163.89 163.89z" data-original="#5a5555" class=""></path><path fill="#ffb655" d="M100.66 258.129H47.97c15.86-27.3 40.95-48.05 70.26-58.75-7.83 16.2-13.7 36.5-17.57 58.75z" data-original="#ffb655"></path><path fill="#ff9100" d="M227.13 258.129c-3.87-22.25-9.74-42.55-17.57-58.75 29.3 10.7 54.39 31.44 70.26 58.75z" data-original="#ff9100"></path><path fill="#ffb655" d="M100.66 392.189c3.87 22.26 9.74 42.56 17.57 58.76-29.31-10.7-54.4-31.45-70.26-58.76z" data-original="#ffb655"></path><path fill="#ff9100" d="M279.81 392.189c-15.85 27.31-40.94 48.06-70.25 58.76 7.83-16.2 13.7-36.5 17.57-58.76z" data-original="#ff9100"></path><path fill="#ff7c48" d="M96.75 288.129c-2.112 23.582-2.259 48.836 0 74.06H35.18c-6.755-22.894-7.025-50.254 0-74.06z" data-original="#ff7c48"></path><path fill="#ff415b" d="M292.61 362.189h-61.57c2.112-23.582 2.259-48.836 0-74.06h61.57c7.167 25.807 6.585 52.429 0 74.06z" data-original="#ff415b" class=""></path><path fill="#ff7c48" d="M196.7 258.129h-65.61c8.73-45.51 24.59-66.86 32.8-66.86h.01c15.25.02 28.68 45.46 32.8 66.86z" data-original="#ff7c48"></path><path fill="#ff415b" d="M196.7 258.129h-32.8v-66.86c15.25.02 28.68 45.46 32.8 66.86z" data-original="#ff415b" class=""></path><path fill="#ff7c48" d="M196.7 392.189c-8.9 46.14-24.76 66.85-32.8 66.87h-.01c-15.25 0-28.71-45.56-32.8-66.87z" data-original="#ff7c48"></path><path fill="#ff415b" d="M163.9 392.189h32.8c-8.9 46.14-24.76 66.85-32.8 66.87z" data-original="#ff415b" class=""></path><path fill="#ffb655" d="M200.95 362.189h-74.11c-2.31-24.07-2.31-49.95 0-74.06h74.11c2.31 24.07 2.31 49.95 0 74.06z" data-original="#ffb655"></path><path fill="#ff9100" d="M200.95 362.189H163.9v-74.06h37.05c2.31 24.07 2.31 49.95 0 74.06z" data-original="#ff9100"></path><path fill="#00ccb3" d="m492.28 131.649-68.17 12.56-66.86 12.32a15.006 15.006 0 0 0-12.28 14.75v104.6c-34.34-16.15-74.14 9.04-74.14 47.14 0 28.71 23.36 52.07 52.07 52.07s52.07-23.36 52.07-52.07v-76.62l49.14-8.85 55.89-10.07v48.4c-19.68-9.25-41.14-4.94-55.89 7.61-24.424 20.757-24.26 58.308 0 79.09 9.11 7.8 20.93 12.51 33.82 12.51 28.71 0 52.07-23.36 52.07-52.07v-176.62c0-9.36-8.5-16.45-17.72-14.75zM480 196.999l-55.89 10.06-49.14 8.85v-32.14l49.14-9.05 55.89-10.3z" data-original="#00ccb3" class=""></path><path fill="#00b6bd" d="m424.11 174.719 55.89-10.3v32.58l-55.89 10.06v30.49l55.89-10.07v48.4c-19.68-9.25-41.14-4.94-55.89 7.61-24.424 20.757-24.26 58.308 0 79.09 9.11 7.8 20.93 12.51 33.82 12.51 28.71 0 52.07-23.36 52.07-52.07v-176.62c0-9.36-8.5-16.45-17.72-14.75l-68.17 12.56z" data-original="#00b6bd"></path></g></svg>