<svg xmlns="http://www.w3.org/2000/svg" version="1.1" xmlns:xlink="http://www.w3.org/1999/xlink" xmlns:svgjs="http://svgjs.com/svgjs" width="512" height="512" x="0" y="0" viewBox="0 0 512 512" style="enable-background:new 0 0 512 512" xml:space="preserve" class=""><g><path d="M179.998 308.847v94.071c0 43.111-34.963 78.074-78.087 78.074-11.551 0-22.506-2.509-32.367-7.005v-.012c-23.86-10.88-41.285-33.423-44.974-60.351a25.2 25.2 0 0 1-9.501-5.986c-9.836-9.824-9.836-25.772 0-35.597 9.824-9.85 25.784-9.85 35.622 0l6.558-37.596 4.472-25.599h118.277v.001z" style="" fill="#fcd2be" data-original="#fcd2be" class=""></path><path d="M69.543 473.976c-23.86-10.88-41.285-33.423-44.974-60.351a25.2 25.2 0 0 1-9.501-5.986c-9.836-9.824-9.836-25.772 0-35.597 9.824-9.85 25.784-9.85 35.622 0l6.558-37.596 20.556 4.173c-8.645 14.942-45.149 69.48-8.261 135.357z" style="" fill="#fab998" data-original="#fab998"></path><path d="M216.501 270.779c0 37.472-30.38 67.84-67.84 67.84H77.803v6.297c0 14.979-12.147 27.114-27.126 27.114-7.254-7.254-17.848-9.154-26.84-5.701v-27.71c0-37.46 30.38-67.84 67.84-67.84h124.824z" style="" fill="#f9ce55" data-original="#f9ce55"></path><path d="M147.045 270.779H91.677c-37.46 0-67.84 30.38-67.84 67.84v27.71c8.993-3.452 19.587-1.552 26.84 5.701 14.979 0 27.126-12.134 27.126-27.114v-6.297h1.402c0-37.46 30.38-67.84 67.84-67.84z" style="" fill="#e2a11e" data-original="#e2a11e"></path><path d="M262.02 64.264H69.399c-12.213 0-22.114 9.901-22.114 22.114v97.266c0 12.213 9.901 22.114 22.114 22.114h108.614v39.988l35.665-39.988h48.342c12.213 0 22.114-9.901 22.114-22.114V86.378c0-12.213-9.901-22.114-22.114-22.114z" style="" fill="#3facc9" data-original="#3facc9"></path><path d="M264.795 15.048h192.621c12.213 0 22.114 9.901 22.114 22.114v97.266c0 12.213-9.901 22.114-22.114 22.114H348.801v39.988l-35.665-39.988h-48.342c-12.213 0-22.114-9.901-22.114-22.114V37.163c-.001-12.213 9.9-22.115 22.115-22.115z" style="" fill="#00c7a9" data-original="#00c7a9"></path><path d="M470.987 496.947s-.133-.051-.39-.164c-4.122-1.856-39.979-19.246-39.979-64.66l-118.175-116.74c-5.537-20.487-3.835-56.478 47.034-60.62 3.168-.267 6.532-.4 10.09-.4 60.713 0 120.287 4.881 132.889 94.243 8.428 59.789-13.484 117.878-31.469 148.341z" style="" fill="#6b4b3d" data-original="#6b4b3d" class=""></path><path d="M470.987 496.947s-.133-.051-.39-.164c.01-.021.01-.041.01-.062 20.508-174.314-58.447-241.958-111.13-241.958 3.168-.267 6.532-.4 10.09-.4 60.713 0 120.287 4.881 132.889 94.243 8.428 59.789-13.484 117.878-31.469 148.341z" style="" fill="#5b3d2d" data-original="#5b3d2d"></path><path d="M464.559 380.532a23.269 23.269 0 0 1-8.764 5.522c-4.033 29.442-25.856 53.201-54.277 60.097a71.562 71.562 0 0 1-17.058 2.039c-39.774 0-72.023-32.248-72.023-72.011v-60.796s31.927 1.145 44.529-11.456c18.295 23.748 42.066 27.059 57.829 26.027v-.011c10.093-.664 16.908-3.105 16.908-3.105V347.7l.011-.011c6.691-6.691 16.462-8.443 24.756-5.258a23.054 23.054 0 0 1 8.088 5.269c9.074 9.061 9.074 23.77.001 32.832z" style="" fill="#fcd2be" data-original="#fcd2be" class=""></path><path d="M464.559 380.532a23.269 23.269 0 0 1-8.764 5.522c-4.033 29.442-25.856 53.201-54.277 60.097 37.403-20.518 13.599-114.924 13.278-116.197v-.011c10.093-.664 16.908-3.105 16.908-3.105v20.861l.011-.011c6.691-6.691 16.462-8.443 24.756-5.258a23.054 23.054 0 0 1 8.088 5.269c9.073 9.062 9.073 23.771 0 32.833z" style="" fill="#fab998" data-original="#fab998"></path><path d="M121.049 384.674v-12.915a7.69 7.69 0 0 0-15.38 0v12.915a7.69 7.69 0 0 0 15.38 0zM139.244 371.759v12.915a7.69 7.69 0 0 0 15.38 0v-12.915a7.69 7.69 0 0 0-15.38 0zM91.624 421.052a7.692 7.692 0 0 0-13.355 7.631c7.696 13.469 20.916 21.079 38.228 22.003a7.692 7.692 0 0 0 8.089-7.269 7.69 7.69 0 0 0-7.269-8.089c-12.002-.641-20.647-5.444-25.693-14.276z" fill="#000000" data-original="#000000" class=""></path><path d="M216.497 263.094H91.678c-41.645 0-75.526 33.881-75.526 75.526a7.69 7.69 0 0 0 15.38 0c0-33.164 26.981-60.146 60.146-60.146h116.64c-3.788 29.545-29.097 52.455-59.656 52.455h-70.86a7.69 7.69 0 0 0-7.69 7.69v6.294c0 9.794-7.285 17.92-16.722 19.241-9.038-7.221-21.344-9.215-32.294-5.011-4.296 1.639-8.154 4.149-11.462 7.458C3.421 372.805 0 381.059 0 389.84s3.421 17.036 9.63 23.237a32.828 32.828 0 0 0 8.026 5.91c7.6 40.029 43.072 69.696 84.255 69.696 47.298 0 85.777-38.473 85.777-85.765v-43.906a7.69 7.69 0 0 0-15.38 0v43.906c0 38.811-31.58 70.384-70.396 70.384-35.003 0-64.977-26.104-69.723-60.722a7.694 7.694 0 0 0-5.07-6.212 17.49 17.49 0 0 1-6.616-4.172 17.345 17.345 0 0 1-5.122-12.357 17.35 17.35 0 0 1 5.125-12.36c1.771-1.77 3.813-3.105 6.088-3.972a17.517 17.517 0 0 1 18.61 3.924 7.691 7.691 0 0 0 5.852 2.29c18.557-.195 33.681-14.984 34.411-33.411h63.196c41.645 0 75.526-33.881 75.526-75.526a7.692 7.692 0 0 0-7.692-7.69zM284.134 175.954a7.69 7.69 0 0 0-7.69 7.69c0 7.953-6.471 14.424-14.424 14.424h-48.341a7.69 7.69 0 0 0-5.739 2.572l-22.235 24.93v-19.811a7.69 7.69 0 0 0-7.69-7.69H69.399c-7.954 0-14.424-6.471-14.424-14.424V86.378c0-7.954 6.471-14.424 14.424-14.424h147.064a7.69 7.69 0 0 0 0-15.38H69.399c-16.435 0-29.805 13.371-29.805 29.805v97.266c0 16.434 13.371 29.805 29.805 29.805h100.924v32.297a7.69 7.69 0 0 0 13.431 5.118l33.371-37.416h44.896c16.434 0 29.805-13.371 29.805-29.805a7.692 7.692 0 0 0-7.692-7.69z" fill="#000000" data-original="#000000" class=""></path><path d="M264.794 164.233h44.896l33.371 37.416a7.695 7.695 0 0 0 8.479 2.068 7.69 7.69 0 0 0 4.952-7.186v-32.297h100.925c16.434 0 29.805-13.371 29.805-29.805V37.163c0-16.435-13.371-29.805-29.805-29.805H439.93c-4.248 0-7.69 3.443-7.69 7.69s3.442 7.69 7.69 7.69h17.486c7.954 0 14.424 6.471 14.424 14.424v97.266c0 7.953-6.471 14.424-14.424 14.424H348.801a7.69 7.69 0 0 0-7.69 7.69v19.811l-22.235-24.93a7.698 7.698 0 0 0-5.74-2.572h-48.341c-7.954 0-14.424-6.471-14.424-14.424V37.163c0-7.954 6.47-14.424 14.424-14.424h150.528c4.248 0 7.69-3.443 7.69-7.69s-3.442-7.69-7.69-7.69H264.794c-16.434 0-29.805 13.371-29.805 29.805v97.266c0 16.433 13.371 29.803 29.805 29.803z" fill="#000000" data-original="#000000" class=""></path><path d="M439.543 46.32h-86.709c-4.248 0-7.69 3.443-7.69 7.69s3.442 7.69 7.69 7.69h86.709c4.248 0 7.69-3.443 7.69-7.69s-3.442-7.69-7.69-7.69zM282.668 61.701h44.53c4.248 0 7.69-3.443 7.69-7.69s-3.442-7.69-7.69-7.69h-44.53c-4.248 0-7.69 3.443-7.69 7.69s3.442 7.69 7.69 7.69zM439.543 77.849h-26.727c-4.248 0-7.69 3.443-7.69 7.69s3.442 7.69 7.69 7.69h26.727c4.248 0 7.69-3.443 7.69-7.69s-3.442-7.69-7.69-7.69zM282.668 93.23H387.18c4.248 0 7.69-3.443 7.69-7.69s-3.442-7.69-7.69-7.69H282.668c-4.248 0-7.69 3.443-7.69 7.69s3.442 7.69 7.69 7.69zM282.668 124.758h109.126c4.248 0 7.69-3.443 7.69-7.69s-3.442-7.69-7.69-7.69H282.668c-4.248 0-7.69 3.443-7.69 7.69s3.442 7.69 7.69 7.69zM84.778 107.84h44.53a7.69 7.69 0 0 0 0-15.38h-44.53a7.69 7.69 0 0 0 0 15.38zM204.67 107.84a7.69 7.69 0 0 0 0-15.38h-44.53a7.69 7.69 0 0 0 0 15.38h44.53zM84.778 123.988a7.69 7.69 0 0 0 0 15.38h134.76a7.69 7.69 0 0 0 0-15.38H84.778zM132.387 155.517a7.69 7.69 0 0 0 0 15.38h61.518a7.69 7.69 0 0 0 0-15.38h-61.518zM84.778 155.517a7.69 7.69 0 0 0 0 15.38h21.972a7.69 7.69 0 0 0 0-15.38H84.778zM381.597 359.35v-11.912c0-4.247-3.442-7.69-7.69-7.69s-7.69 3.443-7.69 7.69v11.912c0 4.247 3.442 7.69 7.69 7.69s7.69-3.443 7.69-7.69zM350.628 359.35v-11.912a7.69 7.69 0 0 0-7.69-7.69 7.69 7.69 0 0 0-7.69 7.69v11.912a7.69 7.69 0 0 0 7.69 7.69 7.689 7.689 0 0 0 7.69-7.69zM362.954 413.564a7.689 7.689 0 0 0 8.089 7.269c16.179-.864 28.54-7.986 35.745-20.594a7.69 7.69 0 0 0-13.354-7.631c-4.548 7.958-12.357 12.287-23.213 12.866a7.69 7.69 0 0 0-7.267 8.09zM510.07 347.531c-4.874-34.556-16.743-59.31-36.287-75.674a7.689 7.689 0 0 0-10.832.96 7.69 7.69 0 0 0 .96 10.833c16.494 13.811 26.612 35.409 30.93 66.029 7.226 51.239-8.533 103.064-26.853 136.942-7.683-4.821-20.789-15.398-26.658-34.001a7.69 7.69 0 0 0-14.667 4.628c10.666 33.814 40.143 46.298 41.392 46.813a7.692 7.692 0 0 0 9.552-3.202c21.105-35.749 40.716-94.803 32.463-153.328z" fill="#000000" data-original="#000000" class=""></path><path d="M462.71 391.393a30.859 30.859 0 0 0 7.288-5.421c5.843-5.834 9.061-13.598 9.061-21.857 0-8.259-3.219-16.022-9.058-21.855-3.116-3.116-6.745-5.477-10.769-7.011a30.934 30.934 0 0 0-19.834-.788v-7.626a7.693 7.693 0 0 0-10.286-7.241c-.394.142-39.788 13.753-66.055-20.363a7.69 7.69 0 0 0-5.597-2.983 7.72 7.72 0 0 0-5.934 2.236c-6.24 6.239-21.605 8.764-32.915 9.184-2.716-16.25 3.106-26.173 5.973-29.918 7.98-10.422 23.113-15.706 44.979-15.706 25.064 0 51.351.711 73.051 9.199a7.692 7.692 0 0 0 5.604-14.325c-24.194-9.463-52.122-10.255-78.655-10.255-26.906 0-46.148 7.313-57.191 21.737-13.738 17.944-9.721 40.234-7.357 48.983a7.692 7.692 0 0 0 7.149 5.68c3.126.112 27.639.664 43.591-8.659 16.341 17.65 35.561 22.463 49.383 23.259 7.331.42 13.864-.225 18.877-1.079v11.112a7.687 7.687 0 0 0 4.832 7.132 7.702 7.702 0 0 0 8.319-1.716 15.565 15.565 0 0 1 16.567-3.499c2.003.764 3.816 1.948 5.393 3.525a15.413 15.413 0 0 1 4.55 10.976 15.41 15.41 0 0 1-4.553 10.978 15.513 15.513 0 0 1-5.874 3.704 7.691 7.691 0 0 0-5.07 6.212c-4.336 31.635-31.727 55.49-63.716 55.49-35.473 0-64.332-28.854-64.332-64.321V341.41c0-4.247-3.442-7.69-7.69-7.69s-7.69 3.443-7.69 7.69v34.769c0 43.948 35.759 79.702 79.713 79.702 38.177-.001 71.07-27.431 78.246-64.488z" fill="#000000" data-original="#000000" class=""></path></g></svg>