<svg xmlns="http://www.w3.org/2000/svg" version="1.1" xmlns:xlink="http://www.w3.org/1999/xlink" xmlns:svgjs="http://svgjs.com/svgjs" width="512" height="512" x="0" y="0" viewBox="0 0 512 512" style="enable-background:new 0 0 512 512" xml:space="preserve" class=""><g><path fill="#d6d6d4" d="M24 378.481A29.519 29.519 0 0 0 53.519 408h6.254a29.518 29.518 0 0 0 20.873-8.646L168 312v-72h-40L30.609 359.866A29.521 29.521 0 0 0 24 378.481z" data-original="#d6d6d4"></path><path fill="#92563a" d="M24 408h464v80H24z" data-original="#92563a"></path><path fill="#fec9a3" d="M224 184h64v56h-64z" data-original="#fec9a3"></path><path fill="#feb784" d="M288 184v31.44a63.64 63.64 0 0 1-32 8.56c-1.75 0-3.49-.07-5.21-.21a63.687 63.687 0 0 1-26.79-8.35V184z" data-original="#feb784"></path><path fill="#4d5e78" d="M168 240h176v168H168z" data-original="#4d5e78"></path><path fill="#e0e0de" d="m200 240 56 108 56-108z" data-original="#e0e0de"></path><path fill="#4d5e78" d="M224 240v48l32-16 32 16v-48l-32 16z" data-original="#4d5e78"></path><path fill="#92563a" d="m216 320-47.219-47.219A33.919 33.919 0 0 0 160 240l-85.172-85.172A9.656 9.656 0 0 0 68 152a9.656 9.656 0 0 0-6.828 2.828l-34.344 34.344A9.656 9.656 0 0 0 24 196a9.656 9.656 0 0 0 2.828 6.828L112 288a33.919 33.919 0 0 0 32.781 8.781L192 344z" data-original="#92563a"></path><path fill="#f98500" d="m47.973 223.987 47.993-47.993 55.991 55.991-47.993 47.993z" data-original="#f98500"></path><path fill="#fec9a3" d="m72 280 8-40 24-16 32 32-24 48z" data-original="#fec9a3"></path><path fill="#e0e0de" d="m72 280-44.108 80.865A31.869 31.869 0 0 0 24 376.127 31.873 31.873 0 0 0 55.873 408h.587a31.873 31.873 0 0 0 30.463-22.5L112 304z" data-original="#e0e0de"></path><path fill="#60d1e0" d="m192 376 24 40 24-40zM240 456l-24-40-24 40z" data-original="#60d1e0"></path><path fill="#fec9a3" d="M224 400h48v56h-48z" data-original="#fec9a3"></path><path fill="#e0e0de" d="M344 240v160h-72v56h88a40 40 0 0 0 40-40V280a40 40 0 0 0-40-40z" data-original="#e0e0de"></path><path fill="#3b495e" d="M280 344h64v16h-64z" data-original="#3b495e"></path><path fill="#60d1e0" d="M456 448h-48l-6.3-25.194A324.942 324.942 0 0 1 392 344h80a324.942 324.942 0 0 1-9.7 78.806z" data-original="#60d1e0"></path><path fill="#9fe4ed" d="M424.218 413.848c-2.941-12.328-6.8-32.521-8.17-44.974l15.9-1.748c1.283 11.675 5.063 31.415 7.83 43.009z" data-original="#9fe4ed"></path><path fill="#60d1e0" d="M456 304h-48a54.626 54.626 0 0 0-16 38.627V344h80v-1.373A54.626 54.626 0 0 0 456 304z" data-original="#60d1e0"></path><path fill="#4eb9c7" d="M392 336h80v16h-80z" data-original="#4eb9c7"></path><path fill="#feb784" d="M328 104h-16v32h16a16 16 0 0 0 16-16 16 16 0 0 0-16-16zM184 136h16v-32h-16a16 16 0 0 0-16 16 16 16 0 0 0 16 16z" data-original="#feb784"></path><path fill="#fec9a3" d="M320 80v64a64 64 0 0 1-64 64c-1.75 0-3.49-.07-5.21-.21A64 64 0 0 1 192 144V80a24.006 24.006 0 0 1 24-24h80a24.006 24.006 0 0 1 24 24z" data-original="#fec9a3"></path><path fill="#fec093" d="M320 80v64a64 64 0 0 1-64 64c-1.75 0-3.49-.07-5.21-.21a94.466 94.466 0 0 0 30.96-70.04V95.67A94.224 94.224 0 0 0 273.06 56H296a24.006 24.006 0 0 1 24 24z" data-original="#fec093"></path><path fill="#7a432a" d="M228 128a12 12 0 1 1 12-12 12.013 12.013 0 0 1-12 12zM284 128a12 12 0 1 1 12-12 12.013 12.013 0 0 1-12 12z" data-original="#7a432a"></path><path fill="#f7ad7c" d="M256 176a24.027 24.027 0 0 1-24-24h16a8 8 0 0 0 16 0h16a24.027 24.027 0 0 1-24 24z" data-original="#f7ad7c"></path><path fill="#875036" d="m192 104 24-40V40l-4 1a32 32 0 0 0-23.918 35.57z" data-original="#875036"></path><path fill="#92563a" d="M204 64h100l16 40 4.482-44.816A32 32 0 0 0 292.64 24H204a20 20 0 0 0-20 20 20 20 0 0 0 20 20z" data-original="#92563a"></path></g></svg>