<svg xmlns="http://www.w3.org/2000/svg" version="1.1" xmlns:xlink="http://www.w3.org/1999/xlink" xmlns:svgjs="http://svgjs.com/svgjs" width="512" height="512" x="0" y="0" viewBox="0 0 64 64" style="enable-background:new 0 0 512 512" xml:space="preserve"><g><path d="M22.36 7.22a1 1 0 0 0 .91.58.91.91 0 0 0 .42-.09 1 1 0 0 0 .49-1.32l-.82-1.8a1 1 0 0 0-1.36-.5 1 1 0 0 0-.5 1.33zM27.21 9.28a1 1 0 0 0 .41-.09l1.8-.82a1 1 0 1 0-.83-1.82l-1.8.82a1 1 0 0 0 .42 1.91zM20 12.56a1 1 0 0 0 .41-.09l1.8-.82a1 1 0 0 0 .5-1.33 1 1 0 0 0-1.33-.49l-1.8.82a1 1 0 0 0 .42 1.91z" fill="#000000" data-original="#000000"></path><path d="M53.53 17.91A1 1 0 0 0 54 18a1 1 0 0 0 .91-.57l1.45-3.05L58.9 9a1 1 0 0 0-.09-1 1 1 0 0 0-1-.4l-4.54.65 1.94-2.59a1 1 0 1 0-1.6-1.2l-3.1 4.14a3 3 0 0 0-2.58.4l-21.74 3.12a1 1 0 0 0-.61 1.65l4 4.48.51.57-25-3a1 1 0 0 0-1 1.45l2.65 5.23 7 13.81a.69.69 0 0 0 .09.15 3.09 3.09 0 0 0 1.37 1.24l-1.73 14.81-6.94 4a1 1 0 0 0 .38 1.86L20.45 60h.11a1 1 0 0 0 .69-1.73l-5.8-5.53L17.21 38a3 3 0 0 0 1.58-.86L19 37l10-11.83 3.31-3.88 10 11.14a.79.79 0 0 0 .15.14 3.42 3.42 0 0 0 2 1L47 51.05l-6.71 6.73a1 1 0 0 0-.19 1.15 1 1 0 0 0 .9.55h.14l15.83-2.28a1 1 0 0 0 .34-1.87l-8.33-4.55-2.57-17.53A3.26 3.26 0 0 0 48 31.82c0-.05.11-.17.14-.22L53 21.44a1 1 0 1 0-1.8-.86l-4.87 10.11s-.06.09-.07.12a1.5 1.5 0 0 1-1.1.77 1.51 1.51 0 0 1-1.28-.43l-.11-.09L32.33 18.3l6.73-1a1 1 0 0 0-.28-2l-8 1.16-2.41-2.68 18.37-2.65a2.9 2.9 0 0 0 0 .51 2.92 2.92 0 0 0-1.82 1.13 3 3 0 0 0-.56 2.07A3 3 0 0 0 42.47 16a3 3 0 0 0-.08 3.46l-.11.14a1 1 0 0 0 .2 1.4 1 1 0 0 0 .6.2 1 1 0 0 0 .8-.4l.11-.14a2.89 2.89 0 0 0 .88.14h.44a3 3 0 0 0 2.54-3.24 2.93 2.93 0 0 0 1.82-1.14 2.7 2.7 0 0 0 .38-.66l3.66-.53-.65 1.36a1 1 0 0 0 .47 1.32zM17.7 57.66l-7.57-.9 4.12-2.39zm10.14-34.19L15.17 22a1 1 0 1 0-.24 2l11.35 1.3-8.8 10.31-.09.08a1.12 1.12 0 0 1-1.79-.2l-.07-.11-6.14-12.1 1.66.2a1 1 0 0 0 1.11-.87 1 1 0 0 0-.87-1.12l-3-.35-1.55-3.09 23.35 2.78zm21.89 30 4 2.16-9.9 1.42 4.42-4.42zm-4-35.06a1 1 0 0 1-1.4.2 1 1 0 0 1 .45-1.79h.15a1 1 0 0 1 .6.2 1 1 0 0 1 .39.66 1 1 0 0 1-.24.74zm2.39-3.2a1 1 0 0 1-1.4.2 1 1 0 0 1-.2-1.4 1 1 0 0 1 .8-.4 1 1 0 0 1 .6.2 1 1 0 0 1 .39.91 1 1 0 0 1-.24.5zM50.47 12a.93.93 0 0 1-.66.39 1 1 0 0 1-.74-.18 1 1 0 0 1-.2-1.41l.13-.14a1 1 0 0 1 .67-.25 1 1 0 0 1 .44.1.65.65 0 0 1 .16.09 1 1 0 0 1 .2 1.4zm1.37 1.46a2.85 2.85 0 0 0 .23-.26 3 3 0 0 0 .39-2.86l3.83-.55-1.55 3.25z" fill="#000000" data-original="#000000"></path></g></svg>