<svg xmlns="http://www.w3.org/2000/svg" version="1.1" xmlns:xlink="http://www.w3.org/1999/xlink" xmlns:svgjs="http://svgjs.com/svgjs" width="512" height="512" x="0" y="0" viewBox="0 0 512 512" style="enable-background:new 0 0 512 512" xml:space="preserve" class=""><g><path d="m333.455 297.936-.086.096-11.228-10.241c-1.548 1.698-15.055 17.729-12.494 57.309 4.273 66.065-6.429 80.508-24.16 104.435-2.755 3.718-5.719 7.72-8.831 12.19 4.101-32.537 5.641-77.477-7.845-116.254-9.832-28.267-5.292-79.08-5.246-79.59a7.597 7.597 0 0 0-6.867-8.264c-4.177-.397-7.878 2.688-8.264 6.865-.205 2.214-4.894 54.591 6.023 85.981 16.634 47.825 8.235 107.953 2.718 136.078-32.721-46.076-31.381-67.795-30.181-87.143.816-13.163 1.587-25.595-8.077-41.877-16.938-28.534-28.633-72.16-28.749-72.597a7.601 7.601 0 0 0-9.293-5.395 7.596 7.596 0 0 0-5.395 9.292c.495 1.867 12.339 46.084 30.369 76.457 7.275 12.256 6.731 21.032 5.978 33.179-1.402 22.597-3.144 50.717 43.054 110.485l.021.027.061.08c.027.036.059.065.087.1l.026.031c.069.086.137.172.211.255.065.073.133.144.2.215.048.05.096.1.145.148.058.058.116.115.176.171.087.081.179.157.271.235l.008.007c.055.046.107.097.163.141.045.036.092.069.138.104.085.064.174.125.262.186.087.06.169.124.259.181.039.025.081.045.12.069.082.05.167.095.252.142.111.062.22.125.334.181l.14.067c.013.006.025.014.039.02.06.028.121.046.181.072.126.054.252.108.383.156.057.021.113.044.171.063.086.029.173.051.259.077.067.02.131.046.199.065.042.011.084.015.127.025.068.017.135.04.204.055.168.038.337.062.506.087.077.012.154.028.231.037.305.037.611.061.915.061h.01c.021 0 .04-.005.061-.005a7.452 7.452 0 0 0 1.078-.088c.028-.004.057-.004.086-.008.117-.019.228-.059.344-.084.231-.049.461-.1.686-.17.057-.018.116-.026.173-.045.097-.033.186-.084.282-.121a7.83 7.83 0 0 0 .639-.275c.066-.032.137-.053.201-.087.072-.038.138-.091.209-.132.205-.117.403-.245.597-.381.084-.059.173-.108.254-.17.011-.009.024-.014.035-.023.051-.04.096-.084.146-.125a7.826 7.826 0 0 0 .613-.558c.056-.056.109-.113.163-.171l.001-.002c.048-.052.099-.099.145-.153a7.45 7.45 0 0 0 .537-.688c.019-.027.035-.057.053-.085l.001-.001c.036-.053.068-.108.102-.163.16-.253.305-.512.433-.779.017-.035.038-.066.054-.102l.002-.003c10.665-23.143 20.843-36.878 29.823-48.997 19.118-25.799 31.747-42.843 27.115-114.464-2.141-33.093 8.534-46.057 8.642-46.184z" style="" fill="#bc8e82" data-original="#bc8e82"></path><path d="m329.079 308.627-14.926-5.298c-3.95-1.402-5.742-5.977-3.796-9.689l17.22-32.84 17.894 6.351-7.337 36.348c-.829 4.108-5.105 6.53-9.055 5.128z" style="" fill="#37d2e2" data-original="#37d2e2"></path><path d="M461.315 182.903c-22.373 63.035-94.421 111.642-131.029 98.648-37.736-13.394-61.89-96.146-39.517-159.181 22.373-63.035 71.583-80.567 118.678-63.851s74.241 61.349 51.868 124.384z" style="" fill="#48e5ff" data-original="#48e5ff" class=""></path><path d="M409.447 58.519a108.086 108.086 0 0 0-12.344-3.577c21.551 21.762 31.817 56.107 22.897 101.75-10.846 55.498-52.88 106.873-89.958 124.765.081.03.162.065.243.094 36.608 12.993 108.656-35.614 131.029-98.648 22.374-63.035-4.772-107.668-51.867-124.384z" style="" fill="#1ad8e2" data-original="#1ad8e2"></path><path d="m182.921 308.687 14.964-5.311c3.96-1.405 5.757-5.992 3.805-9.713l-17.264-32.923-17.939 6.367 7.356 36.44c.831 4.118 5.118 6.545 9.078 5.14z" style="" fill="#eabb68" data-original="#eabb68"></path><path d="M50.685 182.903c22.373 63.035 94.421 111.642 131.029 98.648 37.736-13.394 61.89-96.146 39.517-159.181s-71.583-80.567-118.678-63.851-74.241 61.349-51.868 124.384z" style="" fill="#ffd57f" data-original="#ffd57f" class=""></path><path d="M221.231 122.371c-21.781-61.367-68.999-79.602-114.937-65.1 24.224 8.668 45.467 29.961 60.599 65.1 22.995 53.4 25.345 113.981 16.125 158.678 36.983-14.814 60.327-96.373 38.213-158.678z" style="" fill="#fcc665" data-original="#fcc665"></path><path d="M263.651 277.726h-15.302c-4.049 0-7.159-3.586-6.587-7.594l5.066-35.463h18.344l5.066 35.463c.572 4.008-2.538 7.594-6.587 7.594z" style="" fill="#e56a96" data-original="#e56a96"></path><path d="M352.471 106.477c0 71.313-55.056 145.844-96.471 145.844-42.692 0-96.471-74.531-96.471-145.844S202.721 0 256 0s96.471 35.165 96.471 106.477z" style="" fill="#f77fa4" data-original="#f77fa4"></path><path d="M256.649.007c26.614 20.81 47.549 58.306 47.549 106.471 0 67.228-21.133 108.957-44.119 145.607 40.857-4.607 92.392-76.611 92.392-145.607 0-71.023-42.842-106.186-95.822-106.471z" style="" fill="#dd6fa1" data-original="#dd6fa1" class=""></path></g></svg>