<svg xmlns="http://www.w3.org/2000/svg" version="1.1" xmlns:xlink="http://www.w3.org/1999/xlink" xmlns:svgjs="http://svgjs.com/svgjs" width="512" height="512" x="0" y="0" viewBox="0 0 64 64" style="enable-background:new 0 0 512 512" xml:space="preserve" class=""><g><path d="M2.553 36.9 8 39.618V47a1 1 0 0 0 .849.988L7.01 60.858A1 1 0 0 0 8 62h4a1 1 0 0 0 .98-.8l1.839-9.2h.362l1.839 9.2a1 1 0 0 0 .98.8h4a1 1 0 0 0 .99-1.142l-1.839-12.87A1 1 0 0 0 22 47v-7.382l5.447-2.718A1 1 0 0 0 28 36v-3a1 1 0 0 0-1.274-.962L19.86 34h-.886A4.948 4.948 0 0 0 20 31a5 5 0 0 0-10 0 4.948 4.948 0 0 0 1.026 3h-.886L4 32.245V29a2 2 0 0 1 2-2 4 4 0 0 0 4-4v-5.2c3.087-1.113 5-7.115 5-9.8A6 6 0 0 0 3 8c0 2.688 1.913 8.69 5 9.8V23a2 2 0 0 1-2 2 4 4 0 0 0-4 4v7a1 1 0 0 0 .553.9zM5 8a4 4 0 0 1 8 0c0 2.645-2.2 8-4 8s-4-5.355-4-8zm10 20a3 3 0 1 1-3 3 3 3 0 0 1 3-3zM4 34.326l5.726 1.636A1.007 1.007 0 0 0 10 36h10a1.007 1.007 0 0 0 .274-.038L26 34.326v1.056L20.553 38.1A1 1 0 0 0 20 39v7a1 1 0 0 0-.99 1.142L20.847 60h-2.028l-1.839-9.2A1 1 0 0 0 16 50h-2a1 1 0 0 0-.98.8L11.181 60H9.153l1.837-12.858A1 1 0 0 0 10 46v-7a1 1 0 0 0-.553-.9L4 35.382zM58 25a2 2 0 0 1-2-2v-5.2c3.087-1.113 5-7.115 5-9.8a6 6 0 0 0-12 0c0 2.688 1.913 8.69 5 9.8V23a4 4 0 0 0 4 4 2 2 0 0 1 2 2v3.245L53.86 34h-.886A4.948 4.948 0 0 0 54 31a5 5 0 0 0-10 0 4.948 4.948 0 0 0 1.026 3h-.886l-6.866-1.962A1 1 0 0 0 36 33v3a1 1 0 0 0 .553.9L42 39.618v3.1l-5.857 9.762A1 1 0 0 0 37 54h5.719l-1.689 6.758A1 1 0 0 0 42 62h4a1 1 0 0 0 .948-.684L48.721 56h.558l1.773 5.316A1 1 0 0 0 52 62h4a1 1 0 0 0 .97-1.242L55.281 54H61a1 1 0 0 0 .857-1.515L56 42.723v-3.1l5.447-2.723A1 1 0 0 0 62 36v-7a4 4 0 0 0-4-4zm-3-9c-1.8 0-4-5.355-4-8a4 4 0 0 1 8 0c0 2.645-2.2 8-4 8zm-6 12a3 3 0 1 1-3 3 3 3 0 0 1 3-3zm11 7.382L54.553 38.1A1 1 0 0 0 54 39v4a1 1 0 0 0 .143.515L59.233 52H54a1 1 0 0 0-.97 1.242L54.719 60h-2l-1.773-5.316A1 1 0 0 0 50 54h-2a1 1 0 0 0-.948.684L45.279 60h-2l1.689-6.758A1 1 0 0 0 44 52h-5.233l5.09-8.485A1 1 0 0 0 44 43v-4a1 1 0 0 0-.553-.9L38 35.382v-1.056l5.726 1.636A1.007 1.007 0 0 0 44 36h10a1.007 1.007 0 0 0 .274-.038L60 34.326zM28.952 17.817a1 1 0 0 0 1.06.058L32 16.776l1.988 1.1a1 1 0 0 0 1.471-1.036l-.391-2.4 1.648-1.688a1 1 0 0 0-.565-1.687l-2.236-.341-1.01-2.151a1 1 0 0 0-1.81 0l-1.01 2.151-2.236.341a1 1 0 0 0-.565 1.687l1.648 1.688-.391 2.4a1 1 0 0 0 .411.977zm1.963-5.195a1 1 0 0 0 .754-.563l.331-.7.331.705a1 1 0 0 0 .754.563l.84.128-.641.657a1 1 0 0 0-.271.86l.14.862-.67-.37a1 1 0 0 0-.966 0l-.67.37.14-.862a1 1 0 0 0-.271-.86l-.641-.657z" fill="#000000" data-original="#000000" class=""></path><path d="M41 23v-2a7.009 7.009 0 0 0-7 7h2a5.006 5.006 0 0 1 5-5zM23 23a5.006 5.006 0 0 1 5 5h2a7.009 7.009 0 0 0-7-7zM44 15h2v2h-2zM44 19h2v2h-2zM46 17h2v2h-2zM42 17h2v2h-2zM18 15h2v2h-2zM18 19h2v2h-2zM20 17h2v2h-2zM16 17h2v2h-2z" fill="#000000" data-original="#000000" class=""></path></g></svg>