<svg xmlns="http://www.w3.org/2000/svg" version="1.1" xmlns:xlink="http://www.w3.org/1999/xlink" xmlns:svgjs="http://svgjs.com/svgjs" width="512" height="512" x="0" y="0" viewBox="0 0 96 96" style="enable-background:new 0 0 512 512" xml:space="preserve" class=""><g><g data-name="Disk Jockey"><path fill="#febaa8" d="M86.6 7.29c-23 37.15-17.9 29-24.54 39.68l1.07-18.31L80.27 3.2a3.77 3.77 0 0 1 6.33 4.09z" data-original="#febaa8" class=""></path><path fill="#fed3c1" d="M77.36 7.52 63.13 28.66l-.2 3.34H66l.17-2.86L79.66 9.06a1.36 1.36 0 0 0-.29-1.83 1.37 1.37 0 0 0-2.01.29z" data-original="#fed3c1" class=""></path><path fill="#52537d" d="M60.44 19.87a1 1 0 0 1-1-1V14a11.44 11.44 0 1 0-22.88 0v4.9a1 1 0 1 1-2 0V14a13.44 13.44 0 1 1 26.88 0v4.9a1 1 0 0 1-1 .97z" data-original="#52537d"></path><path fill="#898ac8" d="M38.7 4.3c-1 .94.52 2.31 1.37 1.47A11.34 11.34 0 0 1 55.13 5a1 1 0 0 0 1.31 0 1 1 0 0 0 0-1.49 13.35 13.35 0 0 0-17.74.79z" data-original="#898ac8"></path><path fill="#febaa8" d="M62.06 46.97 60.2 62.53H20.12l5.83-15.56z" data-original="#febaa8" class=""></path><path fill="#fe8d76" d="m45.73 45.49-1.85 15.56H28.76l5.84-15.56z" data-original="#fe8d76"></path><path fill="#fe8d4e" d="M65 25.86a6.34 6.34 0 0 1-5.26 2.8h-21.1A8.34 8.34 0 0 0 30.83 34L26 47h5.57a2.75 2.75 0 0 1 2.71 2.41c1.82 15.7 1.33 11.59 2.07 17.83h23.3c.79-6.68 2.07-17.42 2.05-17.28a13.75 13.75 0 0 1 1.94-5.55c4.26-6.87 2.43-3.91 8.14-13.15z" data-original="#fe8d4e"></path><path fill="#feb54e" d="M43.84 42.46a1.76 1.76 0 0 0-1.6 2.54 11.61 11.61 0 0 1 .92 3.35l1 8.36a1.77 1.77 0 0 0 1.76 1.56h4.16a1.77 1.77 0 0 0 1.76-1.56c.85-7.18.94-9.15 1.83-11.94A1.76 1.76 0 0 0 52 42.46z" data-original="#feb54e"></path><path fill="#fea167" d="m71.78 31.26-.44.71-4.61-3.69a6.34 6.34 0 0 1-5.26 2.8H40.34a8.34 8.34 0 0 0-7.8 5.38L28.57 47H26l4.83-13a8.34 8.34 0 0 1 7.81-5.38h21.12A6.34 6.34 0 0 0 65 25.86z" data-original="#fea167"></path><path fill="#fe604e" d="m60 63.91-.39 3.33H36.35c-.73-6.27-.24-2.13-2.12-17.86A2.75 2.75 0 0 0 31.52 47H26l1.26-3.33h8.22a2.74 2.74 0 0 1 2.71 2.41l2.13 17.86z" data-original="#fe604e"></path><path fill="#fe604e" d="M71.78 31.26c-5.7 9.24-3.87 6.29-8.14 13.15A13.75 13.75 0 0 0 61.7 50c-1.8 15-1.32 11-2.05 17.24H54.9C55.63 61 55.15 65 57 50a13.75 13.75 0 0 1 1.94-5.55c4.83-7.76 6-9.72 6-9.62a4.68 4.68 0 0 0-1.06-6.12l-1-.79a6.22 6.22 0 0 0 2.22-2z" data-original="#fe604e"></path><rect width="93.92" height="23.52" x="1.04" y="61.39" fill="#393f5f" rx="1.96" data-original="#393f5f"></rect><rect width="78.34" height="23.52" x="8.83" y="61.39" fill="#52537d" rx="1.96" data-original="#52537d"></rect><rect width="48" height="19.48" x="24" y="61.39" fill="#706ca0" rx="1.96" data-original="#706ca0" class=""></rect><rect width="15.75" height="2.73" x="40.13" y="63.77" fill="#998fc3" rx="1.37" data-original="#998fc3"></rect><rect width="93.92" height="9.66" x="1.04" y="84.81" fill="#706ca0" rx="1.96" data-original="#706ca0" class=""></rect><rect width="48.31" height="9.66" x="23.85" y="84.81" fill="#8e8fc3" rx="1.96" data-original="#8e8fc3"></rect><rect width="28.12" height="4.44" x="33.94" y="84.81" fill="#b2addc" rx="1.96" data-original="#b2addc"></rect><rect width="7.95" height="36.53" x="44.02" y="54.89" fill="#93bcff" rx="1.46" transform="rotate(90 48 73.15)" data-original="#93bcff" class=""></rect><rect width="4.72" height="15.75" x="45.64" y="65.27" fill="#bbeeff" rx="1.46" transform="rotate(90 48 73.15)" data-original="#bbeeff" class=""></rect><path fill="#706ca0" d="M21.79 69.18v7.95h-4.92v-7.95zM79.13 69.17v7.95h-4.92v-7.95z" data-original="#706ca0" class=""></path><path fill="#7062a5" d="M11.06 55.73h25.57A1.38 1.38 0 0 1 38 57.1v4.38H9.69V57.1a1.38 1.38 0 0 1 1.37-1.37z" data-original="#7062a5" class=""></path><path fill="#8985c3" d="M17.94 55.73h11.81a1.38 1.38 0 0 1 1.38 1.38v4.38H16.57V57.1a1.38 1.38 0 0 1 1.37-1.37z" data-original="#8985c3"></path><path fill="#7062a5" d="M59.37 55.73h25.57a1.38 1.38 0 0 1 1.38 1.38v4.38H58V57.1a1.38 1.38 0 0 1 1.37-1.37z" data-original="#7062a5" class=""></path><path fill="#8985c3" d="M66.25 55.73h11.81a1.38 1.38 0 0 1 1.38 1.38v4.38H64.88V57.1a1.38 1.38 0 0 1 1.37-1.37z" data-original="#8985c3"></path><path fill="#febaa8" d="M48 36.46a4.78 4.78 0 0 1-4.78-4.78v-7.13h9.56v7.13A4.78 4.78 0 0 1 48 36.46z" data-original="#febaa8" class=""></path><path fill="#fed3c1" d="M48 27.22a9 9 0 0 1-9-9v-2.51a9 9 0 0 1 18 0v2.52a9 9 0 0 1-9 8.99z" data-original="#fed3c1" class=""></path><rect width="6.89" height="7.92" x="32.11" y="13.01" fill="#4d4e87" rx="1.7" data-original="#4d4e87"></rect><rect width="6.89" height="7.92" x="57" y="13.01" fill="#4d4e87" rx="1.7" data-original="#4d4e87"></rect><rect width="6.89" height="5.61" x="32.11" y="13.01" fill="#666ca0" rx="1.7" data-original="#666ca0"></rect><rect width="6.89" height="5.61" x="57" y="13.01" fill="#666ca0" rx="1.7" data-original="#666ca0"></rect><g fill="#302d3d"><path d="M96 63.39a3 3 0 0 0-3-3h-5.69v-3.25a2.37 2.37 0 0 0-2.37-2.37H62.15l.55-4.65A12.77 12.77 0 0 1 64.49 45c11.8-19.07-7.61 12.32 23-37.13a4.77 4.77 0 0 0-8-5.17C63.84 25.86 64.24 25.3 64.14 25.4a5.32 5.32 0 0 1-4.38 2.3h-6v-1.29a10 10 0 0 0 3.63-4.76c.81.42 1.06.32 4.78.32a2.7 2.7 0 0 0 2.7-2.7v-4.52a2.7 2.7 0 0 0-2.7-2.7h-.9a13.43 13.43 0 0 0-26.58 0h-.9a2.7 2.7 0 0 0-2.7 2.7v4.52a2.7 2.7 0 0 0 2.7 2.7c3.46 0 3.92.12 4.78-.32a10 10 0 0 0 3.63 4.76v1.29h-3.56a9.41 9.41 0 0 0-8.75 6c-5.84 15.52-4.09 10.86-7.91 21H11.06a2.37 2.37 0 0 0-2.37 2.37v3.29H3a3 3 0 0 0-3 3V83a2.91 2.91 0 0 0 .75 1.9A2.91 2.91 0 0 0 0 86.81v5.74a3 3 0 0 0 3 3h90a3 3 0 0 0 3-3v-5.74a2.91 2.91 0 0 0-.71-1.91A2.91 2.91 0 0 0 96 83zm-11-6.62a.38.38 0 0 1 .37.37v3.29H59v-3.29a.38.38 0 0 1 .37-.37h2.53c-.57 4.87-.58 4.89 0 0zM81.1 3.8a2.77 2.77 0 0 1 4.65 3l-14.23 23-5.16-4.1zM62.19 14.05a.7.7 0 0 1 .7.7v4.52a.71.71 0 0 1-.7.7H58.7a.7.7 0 0 1-.7-.7v-4.52a.7.7 0 0 1 .7-.7zM48 2.57a11.45 11.45 0 0 1 11.27 9.48 3.44 3.44 0 0 0-1.86.32 10 10 0 0 0-18.82 0 3.47 3.47 0 0 0-1.86-.32A11.45 11.45 0 0 1 48 2.57zm-10 16.7a.7.7 0 0 1-.7.7h-3.49a.71.71 0 0 1-.7-.7v-4.52a.7.7 0 0 1 .7-.7h3.49a.7.7 0 0 1 .7.7zm2-1v-2.52a8 8 0 0 1 16 0v2.52a8 8 0 0 1-16 0zm4.22 9.24a9.9 9.9 0 0 0 3.78.75 10 10 0 0 0 3.78-.75v4.21a3.78 3.78 0 0 1-7.56 0zm-12.46 6.93a7.31 7.31 0 0 1 6.88-4.74h3.58v2a5.78 5.78 0 0 0 11.56 0v-2c6.27 0 6.85.13 8.32-.39a7.26 7.26 0 0 0 3.08-2l5.28 4.22c-5.58 9-5.9 9.53-7.67 12.39-1.9 3.1-1.65 2.37-2.66 10.85h-.76A2.37 2.37 0 0 0 57 57.14v3.29H39v-3.29a2.37 2.37 0 0 0-2.37-2.37h-.76l-.65-5.47a3.74 3.74 0 0 0-3.7-3.3H27.4zM26.65 48h4.87a1.73 1.73 0 0 1 1.71 1.53l.62 5.23h-9.74zm-16 9.13a.38.38 0 0 1 .37-.37h25.61a.38.38 0 0 1 .37.37v3.29H10.69zM94 86.81v5.74a1 1 0 0 1-1 1H3a1 1 0 0 1-1-1v-5.74a1 1 0 0 1 .61-.89c.31.06 90.48 0 90.7 0a1 1 0 0 1 .69.89zM2.65 83.88A1 1 0 0 1 2 83V63.39a1 1 0 0 1 1-1h90a1 1 0 0 1 1 1V83a1 1 0 0 1-.61.9c-.26-.06-90.39-.08-90.74-.02z" fill="#302d3d" data-original="#302d3d" class=""></path><path d="M66.26 68.21H29.74a1 1 0 0 0-1 1v8a1 1 0 0 0 1 1h36.52a1 1 0 0 0 1-1v-8a1 1 0 0 0-1-1zm-1 8H30.74v-6h34.52zM21.79 68.21h-4.91a1 1 0 0 0-1 1v8a1 1 0 0 0 1 1h4.91a1 1 0 0 0 1-1v-8a1 1 0 0 0-1-1zm-1 8h-2.91v-6h2.91zM79.12 68.21h-4.91a1 1 0 0 0-1 1v8a1 1 0 0 0 1 1h4.91a1 1 0 0 0 1-1v-8a1 1 0 0 0-1-1zm-1 8h-2.91v-6h2.91z" fill="#302d3d" data-original="#302d3d" class=""></path></g></g></g></svg>