<svg xmlns="http://www.w3.org/2000/svg" version="1.1" xmlns:xlink="http://www.w3.org/1999/xlink" xmlns:svgjs="http://svgjs.com/svgjs" width="512" height="512" x="0" y="0" viewBox="0 0 64 64" style="enable-background:new 0 0 512 512" xml:space="preserve" class=""><g><path fill="#eaca65" d="M24 43.354c-2.783 1.127-5 2.412-5 3.646l1 14h40l1-14c0-3.314-16-7-16-7H35z" data-original="#eaca65" class=""></path><path fill="#cfb259" d="M24 46.354 35 43h10s14.12 3.254 15.829 6.395L61 47c0-3.314-16-7-16-7H35l-11 3.354c-2.783 1.127-5 2.412-5 3.646l.173 2.419c.55-1.05 2.478-2.114 4.827-3.065z" data-original="#cfb259" class=""></path><path fill="#fce0b9" d="M46 17H29v12.19c0 1.781.791 3.469 2.159 4.609l4.703 2.577a5.06 5.06 0 0 0 2.436.624h3.405c.851 0 1.689-.214 2.436-.624l4.703-2.577A6.003 6.003 0 0 0 51 29.19V21zM51 21v5h1.5a2.5 2.5 0 1 0 0-5z" data-original="#fce0b9" class=""></path><path fill="#1a326e" d="M46 12v5l5 4h1.5c.345 0 .674.07.973.196C53.85 19.929 54 18.39 54 17c0-7.732-6.268-14-14-14-3.81 0-7.257 1.53-9.782 4H41a5 5 0 0 1 5 5z" data-original="#1a326e" class=""></path><path fill="#1a326e" d="M46 17v-5a5 5 0 0 0-5-5H27a5 5 0 0 0 0 10h.438z" data-original="#1a326e" class=""></path><path fill="#13244f" d="M27 15a5 5 0 0 1-4.899-4A5 5 0 0 0 27 17h19v-2H27.438z" data-original="#13244f" class=""></path><path fill="#13244f" d="M40.738 5.333h-8.463A14.225 14.225 0 0 0 30.218 7H41a5 5 0 0 1 5 5v5l2.083 1.667H50v-4.071a9.263 9.263 0 0 0-9.262-9.263z" data-original="#13244f" class=""></path><path fill="#f5cba1" d="M46 17H29v3h17l5 4v-3z" data-original="#f5cba1"></path><path fill="#606060" d="M12 21h27v16H12zM29.379 18.515A2.001 2.001 0 0 0 27.438 17H22.562a2 2 0 0 0-1.94 1.515L20 21h10z" data-original="#606060"></path><path fill="#fce0b9" d="M44.138 36.376a5.06 5.06 0 0 1-2.436.624h-3.405a5.063 5.063 0 0 1-2.436-.624L35 35.904V42a7.072 7.072 0 0 0 10 0v-6.096z" data-original="#fce0b9" class=""></path><path fill="#fce0b9" d="m36 54-3.516-12.307a2.992 2.992 0 0 1 .761-2.938 2.99 2.99 0 0 0 .861-1.818l.603-6.025A2.649 2.649 0 0 0 32.074 28H32l-14 1h-.734a2 2 0 0 0-1.985 2.248l.586 4.69a2 2 0 0 0 1.09 1.541l3.206 1.603a8.697 8.697 0 0 1 3.068 2.561 12.346 12.346 0 0 1 2.28 5.259L28 61h23v-5l-18-2" data-original="#fce0b9" class=""></path><path fill="#606060" d="M25 36a7 7 0 1 0 0-14 7 7 0 0 0 0 14zm0-10a3 3 0 1 1 0 6 3 3 0 0 1 0-6z" data-original="#606060"></path><circle cx="25" cy="29" r="3" fill="#71caf0" data-original="#71caf0"></circle><circle cx="26" cy="29" r="1" fill="#ffffff" data-original="#ffffff"></circle><path fill="#fce0b9" d="M16 37h-4v-4c1.381 0 1-1.119 1-2.5V21h2v-1.265a2 2 0 0 0-1.717-1.98l-3.856-.551a2 2 0 0 0-2.072 1.085l-2.144 4.288a2.003 2.003 0 0 0-.211.895v12.457c0 1.326.527 2.598 1.464 3.536l3.071 3.071A4.997 4.997 0 0 1 11 46.071V61h9l-1-11z" data-original="#fce0b9" class=""></path><path fill="#454545" d="M25 20a9 9 0 0 0-9 9c0 .149.015.293.022.44a1.98 1.98 0 0 1 1.243-.44H18a7 7 0 0 1 7-7c3.527 0 6.437 2.612 6.921 6.006L32 28h.074c.761 0 1.437.323 1.918.83C33.9 23.939 29.913 20 25 20z" data-original="#454545"></path><path fill="#f5cba1" d="m45 35.904-.862.472a5.06 5.06 0 0 1-2.436.624h-3.405a5.063 5.063 0 0 1-2.436-.624L35 35.904V42c.158.158.323.304.491.444L45 36.286z" data-original="#f5cba1"></path><path d="M45 25.75c-.965 0-1.75-.785-1.75-1.75s.785-1.75 1.75-1.75 1.75.785 1.75 1.75-.785 1.75-1.75 1.75zm0-2a.25.25 0 0 0-.25.25c0 .275.5.275.5 0a.25.25 0 0 0-.25-.25zM25 33c2.206 0 4-1.794 4-4s-1.794-4-4-4-4 1.794-4 4 1.794 4 4 4zm0-6c1.103 0 2 .897 2 2s-.897 2-2 2-2-.897-2-2 .897-2 2-2z" fill="#000000" data-original="#000000" class=""></path><path d="M46 39.208v-2.711l3.321-1.82a.961.961 0 0 0 .16-.109A6.984 6.984 0 0 0 52 29.19V27h.5c1.93 0 3.5-1.57 3.5-3.5a3.484 3.484 0 0 0-1.384-2.769C54.862 19.633 55 18.344 55 17c0-8.271-6.729-15-15-15-3.816 0-7.392 1.425-10.171 4H27c-3.309 0-6 2.691-6 6 0 1.538.587 2.939 1.542 4.002a2.995 2.995 0 0 0-2.891 2.271L19.22 20H16v-.266a3.013 3.013 0 0 0-2.575-2.969l-3.856-.551a2.989 2.989 0 0 0-3.107 1.628l-2.145 4.289A3.002 3.002 0 0 0 4 23.472v12.457c0 1.604.624 3.11 1.758 4.243l3.07 3.072A3.965 3.965 0 0 1 10 46.071V61a1 1 0 0 0 1 1h49a1 1 0 0 0 .997-.929L62 47c0-3.531-10.627-6.512-16-7.792zm-14.479 2.76 3.205 11.218-1.617-.18-.221 1.987L50 56.895V60H28.839l-2.342-13.271a13.375 13.375 0 0 0-2.464-5.686 9.742 9.742 0 0 0-3.422-2.855l-3.206-1.603a.999.999 0 0 1-.545-.77l-.586-4.69a.989.989 0 0 1 .242-.786.973.973 0 0 1 .56-.298C17.588 33.961 20.942 37 25 37c4.317 0 7.836-3.439 7.986-7.72a1.631 1.631 0 0 1 .728 1.532l-.603 6.025c-.046.457-.25.888-.573 1.211a3.998 3.998 0 0 0-1.017 3.92zM19 29c0-3.309 2.691-6 6-6s6 2.691 6 6-2.691 6-6 6-6-2.691-6-6zm13.755-1.928A8.023 8.023 0 0 0 28.864 22H38v14h-2.795l.499-4.989a3.654 3.654 0 0 0-.926-2.811 3.65 3.65 0 0 0-2.023-1.128zM36 38h5.702A6.07 6.07 0 0 0 44 37.543v4.024c-2.281 2-5.719 2-8 0zm14-8.81c0 1.457-.629 2.83-1.729 3.781L43.657 35.5c-.598.328-1.273.5-1.955.5H40V21a1 1 0 0 0-1-1h-8.22l-.432-1.728c-.024-.095-.061-.182-.093-.272h15.393L50 21.48zM52.5 25H52v-3h.5c.827 0 1.5.673 1.5 1.5s-.673 1.5-1.5 1.5zM40 4c7.168 0 13 5.832 13 13a16.03 16.03 0 0 1-.271 3.023c-.077-.005-.151-.023-.229-.023h-1.149L47 16.519V12c0-3.309-2.691-6-6-6h-7.912A12.89 12.89 0 0 1 40 4zM27 8h14c2.206 0 4 1.794 4 4v4H27c-2.206 0-4-1.794-4-4s1.794-4 4-4zm-5.409 10.758a1 1 0 0 1 .971-.758H27.438c.46 0 .858.312.971.758L28.72 20h-7.44zM21.136 22a8.011 8.011 0 0 0-4.069 6.021 2.992 2.992 0 0 0-2.05.993 3.004 3.004 0 0 0-.728 2.357L14.867 36H13v-3h-.058A3.485 3.485 0 0 0 14 30.5V22h1zM10.242 41.829l-3.07-3.072A3.97 3.97 0 0 1 6 35.929V23.472c0-.154.036-.31.105-.447l2.145-4.289a.993.993 0 0 1 1.035-.542l3.856.551c.49.069.859.495.859.989V20h-4v2h2v2h-2v2h2v2h-2v2h2v.5c0 .827-.673 1.5-1.5 1.5H10v2h.5c.171 0 .335-.027.5-.051V37a1 1 0 0 0 1 1h3.949c.172.142.356.271.561.373l3.206 1.603a7.746 7.746 0 0 1 2.717 2.267c.13.174.239.362.359.543-3.289 1.434-4.791 2.755-4.788 4.286L18.926 60H12V46.071c0-1.603-.624-3.11-1.758-4.242zM20 47c0-.009.114-.899 3.763-2.463.352.813.61 1.667.764 2.539L26.808 60H20.93zm39.069 13H52v-8h-2v2.883l-13.124-1.458-3.431-12.006a1.997 1.997 0 0 1 .507-1.957c.018-.018.031-.039.048-.057V42c0 .265.105.52.293.707 1.573 1.573 3.641 2.36 5.707 2.36s4.134-.787 5.707-2.36A.997.997 0 0 0 46 42v-.732c7.471 1.836 14 4.478 14.003 5.661z" fill="#000000" data-original="#000000" class=""></path></g></svg>