<svg xmlns="http://www.w3.org/2000/svg" version="1.1" xmlns:xlink="http://www.w3.org/1999/xlink" xmlns:svgjs="http://svgjs.com/svgjs" width="512" height="512" x="0" y="0" viewBox="0 0 512 512" style="enable-background:new 0 0 512 512" xml:space="preserve" class=""><g><path d="M406 503.883H7.5v-30h497v30H421M443.638 293.14v180.743M68.606 473.883V293.204M106.001 264.148c0 16.849-13.89 30.454-30.843 29.989C58.817 293.689 46 279.871 46 263.524c0-16.25 13.173-29.424 29.424-29.424h361.153c16.25 0 29.424 13.173 29.424 29.424 0 16.347-12.817 30.165-29.157 30.613-16.954.465-30.843-13.14-30.843-29.989" style="stroke-width:15;stroke-miterlimit:10;" fill="none" stroke="#000000" stroke-width="15" stroke-miterlimit="10" data-original="#000000" class=""></path><path d="M106 264.148c0 16.569 13.432 30 30 30s30-13.432 30-30M166 264.148c0 16.569 13.432 30 30 30s30-13.432 30-30M226 264.148c0 16.569 13.432 30 30 30s30-13.432 30-30M286 264.148c0 16.569 13.432 30 30 30s30-13.432 30-30M346 264.148c0 16.569 13.432 30 30 30s30-13.432 30-30M68.484 368.947h375.032M68.484 399.026h375.032M180.872 368.947c0-16.498-13.374-29.872-29.872-29.872s-29.872 13.374-29.872 29.872M390.872 368.947c0-16.498-13.374-29.872-29.872-29.872s-29.872 13.374-29.872 29.872M285.872 368.947c0-16.498-13.374-29.872-29.872-29.872s-29.872 13.374-29.872 29.872M180.872 473.618c0-16.498-13.374-29.872-29.872-29.872s-29.872 13.374-29.872 29.872M390.872 473.618c0-16.498-13.374-29.872-29.872-29.872s-29.872 13.374-29.872 29.872M285.872 473.618c0-16.498-13.374-29.872-29.872-29.872s-29.872 13.374-29.872 29.872M98.564 316.394v15M203.5 316.394v15M308.819 316.394v15M413.755 316.394v15M98.564 421.394v15M203.5 421.394v15M308.819 421.394v15M413.755 421.394v15M188.5 159.099v75h30v-150h-45v30h15v30M308.5 129.099c0 8.284-6.716 15-15 15s-15-6.716-15-15 6.716-15 15-15 15 6.716 15 15zm30 0c0-24.853-20.147-45-45-45s-45 20.147-45 45c0 11.528 4.34 22.038 11.468 30-7.128 7.962-11.468 18.472-11.468 30 0 24.853 20.147 45 45 45s45-20.147 45-45c0-11.528-4.34-22.038-11.468-30 7.128-7.961 11.468-18.472 11.468-30zm-45 45c-8.284 0-15 6.716-15 15s6.716 15 15 15 15-6.716 15-15-6.716-15-15-15zM203.5 11.223l12.293 12.293c6.789 6.789 6.789 17.796 0 24.585-6.789 6.789-17.796 6.789-24.585 0-6.789-6.789-6.789-17.796 0-24.585L203.5 11.223zM203.5 53.193v30.906M293.516 11.223l12.293 12.293c6.789 6.789 6.789 17.796 0 24.585-6.789 6.789-17.796 6.789-24.585 0-6.789-6.789-6.789-17.796 0-24.585l12.292-12.293zM293.516 53.193v30.906" style="stroke-width:15;stroke-miterlimit:10;" fill="none" stroke="#000000" stroke-width="15" stroke-miterlimit="10" data-original="#000000" class=""></path></g></svg>