<svg xmlns="http://www.w3.org/2000/svg" version="1.1" xmlns:xlink="http://www.w3.org/1999/xlink" xmlns:svgjs="http://svgjs.com/svgjs" width="512" height="512" x="0" y="0" viewBox="0 0 511.999 511.999" style="enable-background:new 0 0 512 512" xml:space="preserve" class=""><g><path d="M56.115 417.782c29.739 11.762 67.744 24.919 110.943 35.65M74.637 488.285a911.385 911.385 0 0 1-39.47-14.945M295.861 365.04c-80.33-10.37-151.58-33.94-199.79-53.24M216.641 296.51c-40.37-11.31-75.18-24.26-101.53-35.22" style="stroke-width:15;stroke-linecap:round;stroke-linejoin:round;stroke-miterlimit:10;" fill="none" stroke="#000000" stroke-width="15" stroke-linecap="round" stroke-linejoin="round" stroke-miterlimit="10" data-original="#000000"></path><path d="M336.184 389.68c-35.418-18.28-74.777-48.231-111.124-84.569-36.348-36.348-66.299-75.727-84.569-111.145" style="stroke-width:15;stroke-linecap:round;stroke-linejoin:round;stroke-miterlimit:10;" fill="none" stroke="#000000" stroke-width="15" stroke-linecap="round" stroke-linejoin="round" stroke-miterlimit="10" data-original="#000000"></path><path d="M167.711 121.78 26.001 497.65c-1.53 4.07 2.44 8.05 6.51 6.51l370.03-139.5" style="stroke-width:15;stroke-linecap:round;stroke-linejoin:round;stroke-miterlimit:10;" fill="none" stroke="#000000" stroke-width="15" stroke-linecap="round" stroke-linejoin="round" stroke-miterlimit="10" data-original="#000000"></path><path d="M351.387 25.241 336.224 9.469c-2.081-2.164-5.397-2.608-7.943-1.016-2.865 1.791-6.461 3.645-9.981 5.46-10.202 5.26-22.899 11.807-32.333 23.611-9.068 11.346-12.5 24.233-15.528 35.602-1.672 6.28-3.403 12.776-5.611 16.302-2.208 3.527-7.295 7.918-12.215 12.165-8.906 7.689-19 16.404-25.248 29.516-6.5 13.643-6.845 27.923-7.121 39.398-.096 3.959-.193 8.004-.554 11.363-.32 2.985 1.527 5.775 4.383 6.702l36.87 11.966c3.57 1.158 7.418-.985 8.2-4.655 1.796-8.431 1.995-16.681 2.175-24.144.176-7.303.358-14.854 2.169-18.655 1.632-3.427 7.413-8.416 12.512-12.818 7.422-6.407 15.835-13.671 22.129-23.723 6.295-10.053 9.156-20.793 11.679-30.268 1.733-6.51 3.698-13.889 6.068-16.854 2.628-3.287 9.342-6.749 15.835-10.097 1.644-.848 3.332-1.718 5.043-2.627M337.277 335.365c2.049-3.367 3.882-6.725 5.633-9.917 3.501-6.405 7.126-13.027 10.484-15.581 3.017-2.296 10.442-4.078 16.992-5.654 9.536-2.286 20.339-4.881 30.544-10.926 10.205-6.045 17.682-14.273 24.262-21.544 4.531-4.984 9.66-10.638 13.13-12.193 3.841-1.709 11.39-1.709 18.701-1.709 7.466.01 15.715.01 24.19-1.576 3.687-.69 5.921-4.49 4.85-8.084l-11.05-37.156c-.855-2.873-3.604-4.789-6.591-4.541-3.367.278-7.415.278-11.379.268-3.216 0-6.659.004-10.244.139M414.914 214.139c-11.868 5.997-20.172 15.146-27.557 23.281-4.366 4.809-8.887 9.793-12.461 11.915-3.584 2.121-10.113 3.687-16.436 5.201-11.441 2.75-24.406 5.87-35.971 14.654-12.038 9.134-18.897 21.667-24.406 31.739a477.425 477.425 0 0 1-2.297 4.171" style="stroke-width:15;stroke-linecap:round;stroke-linejoin:round;stroke-miterlimit:10;" fill="none" stroke="#000000" stroke-width="15" stroke-linecap="round" stroke-linejoin="round" stroke-miterlimit="10" data-original="#000000"></path><path d="M357.638 205.368c10.148 11.058 19.448 22.135 27.783 33.006M285.945 140.339c10.707 7.925 21.658 16.819 32.632 26.571M432.384 331.324c-1.314-13.136-7.336-29.628-17.3-47.978M240.065 111.55c-13.258-6.659-25.386-11.092-35.78-12.992M214.632 87.645l-16.331 16.331c-4.022 4.022-10.542 4.022-14.564 0l-16.331-16.331c-4.022-4.022-4.022-10.542 0-14.564l16.331-16.331c4.022-4.022 10.542-4.022 14.564 0l16.331 16.331c4.022 4.022 4.022 10.543 0 14.564zM380.511 67.676h-23.096c-5.688 0-10.298-4.611-10.298-10.298V34.282c0-5.687 4.611-10.298 10.298-10.298h23.096c5.687 0 10.298 4.611 10.298 10.298v23.096c0 5.688-4.61 10.298-10.298 10.298zM456.273 153.461l-16.331 16.331c-4.022 4.022-10.542 4.022-14.564 0l-16.331-16.331c-4.022-4.022-4.022-10.542 0-14.564l16.331-16.331c4.022-4.022 10.542-4.022 14.564 0l16.331 16.331c4.022 4.022 4.022 10.542 0 14.564z" style="stroke-width:15;stroke-linecap:round;stroke-linejoin:round;stroke-miterlimit:10;" fill="none" stroke="#000000" stroke-width="15" stroke-linecap="round" stroke-linejoin="round" stroke-miterlimit="10" data-original="#000000"></path><path d="M360.101 174.02v23.096c0 5.687-4.611 10.298-10.298 10.298h-23.096c-5.688 0-10.298-4.611-10.298-10.298V174.02c0-5.687 4.611-10.298 10.298-10.298h23.096c5.687 0 10.298 4.611 10.298 10.298zM446.909 360.409l-16.331 16.331c-4.022 4.022-10.542 4.022-14.564 0l-16.331-16.331c-4.022-4.022-4.022-10.542 0-14.564l16.331-16.331c4.022-4.022 10.542-4.022 14.564 0l16.331 16.331c4.022 4.022 4.022 10.542 0 14.564zM218.816 226.63c11.68 14.795 25.088 29.904 39.952 44.768 52.715 52.715 108.525 87.192 142.379 90.783M174.346 104.177c-15.007 15.007-3.88 52.418 25.188 96.007M256.385 419.763c-38.372-6.412-74.175-15.543-105.783-25.325M119.274 384.102a894.128 894.128 0 0 1-44.132-16.784" style="stroke-width:15;stroke-linecap:round;stroke-linejoin:round;stroke-miterlimit:10;" fill="none" stroke="#000000" stroke-width="15" stroke-linecap="round" stroke-linejoin="round" stroke-miterlimit="10" data-original="#000000"></path></g></svg>